<svg xmlns="http://www.w3.org/2000/svg" width="304.79999999999995mm" height="457.2mm" viewBox="0 0 304.79999999999995 457.2">
<g id="CUT" stroke="red" fill="none" stroke-width="0.1">
<rect x="2.0" y="2.0" width="101.6" height="127.0" fill="none" stroke="red" stroke-width="0.1" />
<rect x="33.75" y="8.0" width="2.98" height="115.0" fill="none" stroke="red" stroke-width="0.1" />
<circle cx="8.0" cy="33.75" r="1.2" fill="none" stroke="red" stroke-width="0.1" />
<circle cx="97.6" cy="33.75" r="1.2" fill="none" stroke="red" stroke-width="0.1" />
<rect x="5.6373999999999995" y="31.3874" width="4.7252" height="4.7252" fill="none" stroke="red" stroke-width="0.1" />
<rect x="95.2374" y="31.3874" width="4.7252" height="4.7252" fill="none" stroke="red" stroke-width="0.1" />
<circle cx="8.0" cy="97.25" r="1.2" fill="none" stroke="red" stroke-width="0.1" />
<circle cx="97.6" cy="97.25" r="1.2" fill="none" stroke="red" stroke-width="0.1" />
<rect x="5.6373999999999995" y="94.8874" width="4.7252" height="4.7252" fill="none" stroke="red" stroke-width="0.1" />
<rect x="95.2374" y="94.8874" width="4.7252" height="4.7252" fill="none" stroke="red" stroke-width="0.1" />
<rect x="105.6" y="2.0" width="101.6" height="127.0" fill="none" stroke="red" stroke-width="0.1" />
<rect x="137.35" y="8.0" width="2.98" height="115.0" fill="none" stroke="red" stroke-width="0.1" />
<circle cx="111.6" cy="33.75" r="1.2" fill="none" stroke="red" stroke-width="0.1" />
<circle cx="201.2" cy="33.75" r="1.2" fill="none" stroke="red" stroke-width="0.1" />
<rect x="109.2374" y="31.3874" width="4.7252" height="4.7252" fill="none" stroke="red" stroke-width="0.1" />
<rect x="198.8374" y="31.3874" width="4.7252" height="4.7252" fill="none" stroke="red" stroke-width="0.1" />
<circle cx="111.6" cy="97.25" r="1.2" fill="none" stroke="red" stroke-width="0.1" />
<circle cx="201.2" cy="97.25" r="1.2" fill="none" stroke="red" stroke-width="0.1" />
<rect x="109.2374" y="94.8874" width="4.7252" height="4.7252" fill="none" stroke="red" stroke-width="0.1" />
<rect x="198.8374" y="94.8874" width="4.7252" height="4.7252" fill="none" stroke="red" stroke-width="0.1" />
<rect x="209.2" y="2.0" width="76.19999999999999" height="127.0" fill="none" stroke="red" stroke-width="0.1" />
<circle cx="215.2" cy="33.75" r="1.2" fill="none" stroke="red" stroke-width="0.1" />
<circle cx="279.4" cy="33.75" r="1.2" fill="none" stroke="red" stroke-width="0.1" />
<rect x="212.8374" y="31.3874" width="4.7252" height="4.7252" fill="none" stroke="red" stroke-width="0.1" />
<rect x="277.0374" y="31.3874" width="4.7252" height="4.7252" fill="none" stroke="red" stroke-width="0.1" />
<circle cx="215.2" cy="97.25" r="1.2" fill="none" stroke="red" stroke-width="0.1" />
<circle cx="279.4" cy="97.25" r="1.2" fill="none" stroke="red" stroke-width="0.1" />
<rect x="212.8374" y="94.8874" width="4.7252" height="4.7252" fill="none" stroke="red" stroke-width="0.1" />
<rect x="277.0374" y="94.8874" width="4.7252" height="4.7252" fill="none" stroke="red" stroke-width="0.1" />
<rect x="2.0" y="131.0" width="76.19999999999999" height="127.0" fill="none" stroke="red" stroke-width="0.1" />
<circle cx="8.0" cy="162.75" r="1.2" fill="none" stroke="red" stroke-width="0.1" />
<circle cx="72.19999999999999" cy="162.75" r="1.2" fill="none" stroke="red" stroke-width="0.1" />
<rect x="5.6373999999999995" y="160.3874" width="4.7252" height="4.7252" fill="none" stroke="red" stroke-width="0.1" />
<rect x="69.83739999999999" y="160.3874" width="4.7252" height="4.7252" fill="none" stroke="red" stroke-width="0.1" />
<circle cx="8.0" cy="226.25" r="1.2" fill="none" stroke="red" stroke-width="0.1" />
<circle cx="72.19999999999999" cy="226.25" r="1.2" fill="none" stroke="red" stroke-width="0.1" />
<rect x="5.6373999999999995" y="223.8874" width="4.7252" height="4.7252" fill="none" stroke="red" stroke-width="0.1" />
<rect x="69.83739999999999" y="223.8874" width="4.7252" height="4.7252" fill="none" stroke="red" stroke-width="0.1" />
<rect x="177.79999999999998" y="131.0" width="95.6" height="70.19999999999999" fill="none" stroke="red" stroke-width="0.1" />
<rect x="209.54999999999998" y="164.64999999999998" width="2.98" height="2.9" fill="none" stroke="red" stroke-width="0.1" />
<rect x="80.19999999999999" y="131.0" width="95.6" height="124.0" fill="none" stroke="red" stroke-width="0.1" />
</g>
<g id="ENGRAVE" stroke="black" fill="none" stroke-width="0.1">
<text x="52.8" y="65.5" fill="black" font-family="Arial" font-size="6.0" text-anchor="middle" dominant-baseline="middle">Pencil</text>
<text x="247.29999999999998" y="65.5" fill="black" font-family="Arial" font-size="6.0" text-anchor="middle" dominant-baseline="middle">HEY</text>
</g>
</svg>