<?xml version="1.0" encoding="UTF-8" standalone="no"?>
<svg xmlns="http://www.w3.org/2000/svg" width="304.8000mm" height="457.2000mm" viewBox="0 0 304.8000 457.2000">
<rect x="0" y="0" width="100%" height="100%" fill="white" />
<g transform="translate(2.0000,2.0000)"><path d="M 0.0000 0.0000 L 152.4000 0.0000 L 152.4000 83.6000 L 155.5000 83.6000 L 155.5000 95.6000 L 152.4000 95.6000 L 152.4000 6.0000 L 155.5000 6.0000 L 155.5000 18.0000 L 152.4000 18.0000 L 152.4000 101.6000 L 146.4000 101.6000 L 146.4000 104.7000 L 134.4000 104.7000 L 134.4000 101.6000 L 18.0000 101.6000 L 18.0000 104.7000 L 6.0000 104.7000 L 6.0000 101.6000 L 0.0000 101.6000 L 0.0000 18.0000 L 2.9000 18.0000 L 2.9000 6.0000 L 0.0000 6.0000 L 0.0000 95.6000 L 2.9000 95.6000 L 2.9000 83.6000 L 0.0000 83.6000 L 0.0000 0.0000 Z" fill="none" stroke="red" stroke-width="0.1" /></g>
<rect x="54.4000" y="8.0000" width="2.8000" height="89.6000" fill="none" stroke="red" stroke-width="0.1" />
<rect x="149.0048" y="11.7024" width="4.5952" height="4.5952" fill="none" stroke="red" stroke-width="0.1" />
<rect x="151.3024" y="12.8000" width="6.1976" height="2.4000" fill="none" stroke="red" stroke-width="0.1" />
<rect x="149.0048" y="89.3024" width="4.5952" height="4.5952" fill="none" stroke="red" stroke-width="0.1" />
<rect x="151.3024" y="90.4000" width="6.1976" height="2.4000" fill="none" stroke="red" stroke-width="0.1" />
<circle cx="6.9000" cy="14.0000" r="1.2000" fill="none" stroke="red" stroke-width="0.1" />
<circle cx="6.9000" cy="91.6000" r="1.2000" fill="none" stroke="red" stroke-width="0.1" />
<circle cx="14.0000" cy="105.1500" r="1.2000" fill="none" stroke="red" stroke-width="0.1" />
<circle cx="142.4000" cy="105.1500" r="1.2000" fill="none" stroke="red" stroke-width="0.1" />
<g transform="translate(2.0000,108.7000)"><path d="M 0.0000 0.0000 L 152.4000 0.0000 L 152.4000 83.6000 L 155.5000 83.6000 L 155.5000 95.6000 L 152.4000 95.6000 L 152.4000 6.0000 L 155.5000 6.0000 L 155.5000 18.0000 L 152.4000 18.0000 L 152.4000 101.6000 L 146.4000 101.6000 L 146.4000 104.7000 L 134.4000 104.7000 L 134.4000 101.6000 L 18.0000 101.6000 L 18.0000 104.7000 L 6.0000 104.7000 L 6.0000 101.6000 L 0.0000 101.6000 L 0.0000 18.0000 L 2.9000 18.0000 L 2.9000 6.0000 L 0.0000 6.0000 L 0.0000 95.6000 L 2.9000 95.6000 L 2.9000 83.6000 L 0.0000 83.6000 L 0.0000 0.0000 Z" fill="none" stroke="red" stroke-width="0.1" /></g>
<rect x="54.4000" y="114.7000" width="2.8000" height="89.6000" fill="none" stroke="red" stroke-width="0.1" />
<circle cx="6.9000" cy="120.7000" r="1.2000" fill="none" stroke="red" stroke-width="0.1" />
<circle cx="6.9000" cy="198.3000" r="1.2000" fill="none" stroke="red" stroke-width="0.1" />
<rect x="149.0048" y="118.4024" width="4.5952" height="4.5952" fill="none" stroke="red" stroke-width="0.1" />
<rect x="151.3024" y="119.5000" width="6.1976" height="2.4000" fill="none" stroke="red" stroke-width="0.1" />
<rect x="149.0048" y="196.0024" width="4.5952" height="4.5952" fill="none" stroke="red" stroke-width="0.1" />
<rect x="151.3024" y="197.1000" width="6.1976" height="2.4000" fill="none" stroke="red" stroke-width="0.1" />
<circle cx="14.0000" cy="211.8500" r="1.2000" fill="none" stroke="red" stroke-width="0.1" />
<circle cx="142.4000" cy="211.8500" r="1.2000" fill="none" stroke="red" stroke-width="0.1" />
<g transform="translate(159.5000,108.7000)"><path d="M 0.0000 0.0000 L 76.2000 0.0000 L 76.2000 83.6000 L 79.3000 83.6000 L 79.3000 95.6000 L 76.2000 95.6000 L 76.2000 6.0000 L 79.3000 6.0000 L 79.3000 18.0000 L 76.2000 18.0000 L 76.2000 101.6000 L 70.2000 101.6000 L 70.2000 104.7000 L 58.2000 104.7000 L 58.2000 101.6000 L 18.0000 101.6000 L 18.0000 104.7000 L 6.0000 104.7000 L 6.0000 101.6000 L 0.0000 101.6000 L 0.0000 18.0000 L 2.9000 18.0000 L 2.9000 6.0000 L 0.0000 6.0000 L 0.0000 95.6000 L 2.9000 95.6000 L 2.9000 83.6000 L 0.0000 83.6000 L 0.0000 0.0000 Z" fill="none" stroke="red" stroke-width="0.1" /></g>
<circle cx="164.4000" cy="120.7000" r="1.2000" fill="none" stroke="red" stroke-width="0.1" />
<circle cx="164.4000" cy="198.3000" r="1.2000" fill="none" stroke="red" stroke-width="0.1" />
<rect x="230.3048" y="118.4024" width="4.5952" height="4.5952" fill="none" stroke="red" stroke-width="0.1" />
<rect x="232.6024" y="119.5000" width="6.1976" height="2.4000" fill="none" stroke="red" stroke-width="0.1" />
<rect x="230.3048" y="196.0024" width="4.5952" height="4.5952" fill="none" stroke="red" stroke-width="0.1" />
<rect x="232.6024" y="197.1000" width="6.1976" height="2.4000" fill="none" stroke="red" stroke-width="0.1" />
<circle cx="171.5000" cy="211.8500" r="1.2000" fill="none" stroke="red" stroke-width="0.1" />
<circle cx="223.7000" cy="211.8500" r="1.2000" fill="none" stroke="red" stroke-width="0.1" />
<g transform="translate(197.6000,159.5000) rotate(90)"><text x="0" y="0" font-family="Arial" font-size="10.0000mm" text-anchor="middle" dominant-baseline="middle" fill="none" stroke="black" stroke-width="0.1">BPI</text></g>
<g transform="translate(2.0000,215.4000)"><path d="M 0.0000 0.0000 L 76.2000 0.0000 L 76.2000 83.6000 L 79.3000 83.6000 L 79.3000 95.6000 L 76.2000 95.6000 L 76.2000 6.0000 L 79.3000 6.0000 L 79.3000 18.0000 L 76.2000 18.0000 L 76.2000 101.6000 L 70.2000 101.6000 L 70.2000 104.7000 L 58.2000 104.7000 L 58.2000 101.6000 L 18.0000 101.6000 L 18.0000 104.7000 L 6.0000 104.7000 L 6.0000 101.6000 L 0.0000 101.6000 L 0.0000 18.0000 L 2.9000 18.0000 L 2.9000 6.0000 L 0.0000 6.0000 L 0.0000 95.6000 L 2.9000 95.6000 L 2.9000 83.6000 L 0.0000 83.6000 L 0.0000 0.0000 Z" fill="none" stroke="red" stroke-width="0.1" /></g>
<circle cx="6.9000" cy="227.4000" r="1.2000" fill="none" stroke="red" stroke-width="0.1" />
<circle cx="6.9000" cy="305.0000" r="1.2000" fill="none" stroke="red" stroke-width="0.1" />
<rect x="72.8048" y="225.1024" width="4.5952" height="4.5952" fill="none" stroke="red" stroke-width="0.1" />
<rect x="75.1024" y="226.2000" width="6.1976" height="2.4000" fill="none" stroke="red" stroke-width="0.1" />
<rect x="72.8048" y="302.7024" width="4.5952" height="4.5952" fill="none" stroke="red" stroke-width="0.1" />
<rect x="75.1024" y="303.8000" width="6.1976" height="2.4000" fill="none" stroke="red" stroke-width="0.1" />
<circle cx="14.0000" cy="318.5500" r="1.2000" fill="none" stroke="red" stroke-width="0.1" />
<circle cx="66.2000" cy="318.5500" r="1.2000" fill="none" stroke="red" stroke-width="0.1" />
<g transform="translate(2.0000,215.4000)"><path d="M 38.1000,32.0000 L 36.7432,34.3500 L 39.4568,34.3500 Z" fill="none" stroke="black" stroke-width="0.1" /></g>
<g transform="translate(2.0000,215.4000)"><path d="M 36.7432,34.3500 L 35.3865,36.7000 L 38.1000,36.7000 Z" fill="none" stroke="black" stroke-width="0.1" /></g>
<g transform="translate(2.0000,215.4000)"><path d="M 39.4568,34.3500 L 38.1000,36.7000 L 40.8135,36.7000 Z" fill="none" stroke="black" stroke-width="0.1" /></g>
<g transform="translate(2.0000,215.4000)"><path d="M 35.3865,36.7000 L 34.0297,39.0500 L 36.7432,39.0500 Z" fill="none" stroke="black" stroke-width="0.1" /></g>
<g transform="translate(2.0000,215.4000)"><path d="M 34.0297,39.0500 L 32.6729,41.4000 L 35.3865,41.4000 Z" fill="none" stroke="black" stroke-width="0.1" /></g>
<g transform="translate(2.0000,215.4000)"><path d="M 36.7432,39.0500 L 35.3865,41.4000 L 38.1000,41.4000 Z" fill="none" stroke="black" stroke-width="0.1" /></g>
<g transform="translate(2.0000,215.4000)"><path d="M 40.8135,36.7000 L 39.4568,39.0500 L 42.1703,39.0500 Z" fill="none" stroke="black" stroke-width="0.1" /></g>
<g transform="translate(2.0000,215.4000)"><path d="M 39.4568,39.0500 L 38.1000,41.4000 L 40.8135,41.4000 Z" fill="none" stroke="black" stroke-width="0.1" /></g>
<g transform="translate(2.0000,215.4000)"><path d="M 42.1703,39.0500 L 40.8135,41.4000 L 43.5271,41.4000 Z" fill="none" stroke="black" stroke-width="0.1" /></g>
<g transform="translate(2.0000,215.4000)"><path d="M 32.6729,41.4000 L 31.3161,43.7500 L 34.0297,43.7500 Z" fill="none" stroke="black" stroke-width="0.1" /></g>
<g transform="translate(2.0000,215.4000)"><path d="M 31.3161,43.7500 L 29.9594,46.1000 L 32.6729,46.1000 Z" fill="none" stroke="black" stroke-width="0.1" /></g>
<g transform="translate(2.0000,215.4000)"><path d="M 34.0297,43.7500 L 32.6729,46.1000 L 35.3865,46.1000 Z" fill="none" stroke="black" stroke-width="0.1" /></g>
<g transform="translate(2.0000,215.4000)"><path d="M 29.9594,46.1000 L 28.6026,48.4500 L 31.3161,48.4500 Z" fill="none" stroke="black" stroke-width="0.1" /></g>
<g transform="translate(2.0000,215.4000)"><path d="M 28.6026,48.4500 L 27.2458,50.8000 L 29.9594,50.8000 Z" fill="none" stroke="black" stroke-width="0.1" /></g>
<g transform="translate(2.0000,215.4000)"><path d="M 31.3161,48.4500 L 29.9594,50.8000 L 32.6729,50.8000 Z" fill="none" stroke="black" stroke-width="0.1" /></g>
<g transform="translate(2.0000,215.4000)"><path d="M 35.3865,46.1000 L 34.0297,48.4500 L 36.7432,48.4500 Z" fill="none" stroke="black" stroke-width="0.1" /></g>
<g transform="translate(2.0000,215.4000)"><path d="M 34.0297,48.4500 L 32.6729,50.8000 L 35.3865,50.8000 Z" fill="none" stroke="black" stroke-width="0.1" /></g>
<g transform="translate(2.0000,215.4000)"><path d="M 36.7432,48.4500 L 35.3865,50.8000 L 38.1000,50.8000 Z" fill="none" stroke="black" stroke-width="0.1" /></g>
<g transform="translate(2.0000,215.4000)"><path d="M 43.5271,41.4000 L 42.1703,43.7500 L 44.8839,43.7500 Z" fill="none" stroke="black" stroke-width="0.1" /></g>
<g transform="translate(2.0000,215.4000)"><path d="M 42.1703,43.7500 L 40.8135,46.1000 L 43.5271,46.1000 Z" fill="none" stroke="black" stroke-width="0.1" /></g>
<g transform="translate(2.0000,215.4000)"><path d="M 44.8839,43.7500 L 43.5271,46.1000 L 46.2406,46.1000 Z" fill="none" stroke="black" stroke-width="0.1" /></g>
<g transform="translate(2.0000,215.4000)"><path d="M 40.8135,46.1000 L 39.4568,48.4500 L 42.1703,48.4500 Z" fill="none" stroke="black" stroke-width="0.1" /></g>
<g transform="translate(2.0000,215.4000)"><path d="M 39.4568,48.4500 L 38.1000,50.8000 L 40.8135,50.8000 Z" fill="none" stroke="black" stroke-width="0.1" /></g>
<g transform="translate(2.0000,215.4000)"><path d="M 42.1703,48.4500 L 40.8135,50.8000 L 43.5271,50.8000 Z" fill="none" stroke="black" stroke-width="0.1" /></g>
<g transform="translate(2.0000,215.4000)"><path d="M 46.2406,46.1000 L 44.8839,48.4500 L 47.5974,48.4500 Z" fill="none" stroke="black" stroke-width="0.1" /></g>
<g transform="translate(2.0000,215.4000)"><path d="M 44.8839,48.4500 L 43.5271,50.8000 L 46.2406,50.8000 Z" fill="none" stroke="black" stroke-width="0.1" /></g>
<g transform="translate(2.0000,215.4000)"><path d="M 47.5974,48.4500 L 46.2406,50.8000 L 48.9542,50.8000 Z" fill="none" stroke="black" stroke-width="0.1" /></g>
<g transform="translate(2.0000,215.4000)"><path d="M 27.2458,50.8000 L 25.8890,53.1500 L 28.6026,53.1500 Z" fill="none" stroke="black" stroke-width="0.1" /></g>
<g transform="translate(2.0000,215.4000)"><path d="M 25.8890,53.1500 L 24.5323,55.5000 L 27.2458,55.5000 Z" fill="none" stroke="black" stroke-width="0.1" /></g>
<g transform="translate(2.0000,215.4000)"><path d="M 28.6026,53.1500 L 27.2458,55.5000 L 29.9594,55.5000 Z" fill="none" stroke="black" stroke-width="0.1" /></g>
<g transform="translate(2.0000,215.4000)"><path d="M 24.5323,55.5000 L 23.1755,57.8500 L 25.8890,57.8500 Z" fill="none" stroke="black" stroke-width="0.1" /></g>
<g transform="translate(2.0000,215.4000)"><path d="M 23.1755,57.8500 L 21.8187,60.2000 L 24.5323,60.2000 Z" fill="none" stroke="black" stroke-width="0.1" /></g>
<g transform="translate(2.0000,215.4000)"><path d="M 25.8890,57.8500 L 24.5323,60.2000 L 27.2458,60.2000 Z" fill="none" stroke="black" stroke-width="0.1" /></g>
<g transform="translate(2.0000,215.4000)"><path d="M 29.9594,55.5000 L 28.6026,57.8500 L 31.3161,57.8500 Z" fill="none" stroke="black" stroke-width="0.1" /></g>
<g transform="translate(2.0000,215.4000)"><path d="M 28.6026,57.8500 L 27.2458,60.2000 L 29.9594,60.2000 Z" fill="none" stroke="black" stroke-width="0.1" /></g>
<g transform="translate(2.0000,215.4000)"><path d="M 31.3161,57.8500 L 29.9594,60.2000 L 32.6729,60.2000 Z" fill="none" stroke="black" stroke-width="0.1" /></g>
<g transform="translate(2.0000,215.4000)"><path d="M 21.8187,60.2000 L 20.4619,62.5500 L 23.1755,62.5500 Z" fill="none" stroke="black" stroke-width="0.1" /></g>
<g transform="translate(2.0000,215.4000)"><path d="M 20.4619,62.5500 L 19.1052,64.9000 L 21.8187,64.9000 Z" fill="none" stroke="black" stroke-width="0.1" /></g>
<g transform="translate(2.0000,215.4000)"><path d="M 23.1755,62.5500 L 21.8187,64.9000 L 24.5323,64.9000 Z" fill="none" stroke="black" stroke-width="0.1" /></g>
<g transform="translate(2.0000,215.4000)"><path d="M 19.1052,64.9000 L 17.7484,67.2500 L 20.4619,67.2500 Z" fill="none" stroke="black" stroke-width="0.1" /></g>
<g transform="translate(2.0000,215.4000)"><path d="M 17.7484,67.2500 L 16.3916,69.6000 L 19.1052,69.6000 Z" fill="none" stroke="black" stroke-width="0.1" /></g>
<g transform="translate(2.0000,215.4000)"><path d="M 20.4619,67.2500 L 19.1052,69.6000 L 21.8187,69.6000 Z" fill="none" stroke="black" stroke-width="0.1" /></g>
<g transform="translate(2.0000,215.4000)"><path d="M 24.5323,64.9000 L 23.1755,67.2500 L 25.8890,67.2500 Z" fill="none" stroke="black" stroke-width="0.1" /></g>
<g transform="translate(2.0000,215.4000)"><path d="M 23.1755,67.2500 L 21.8187,69.6000 L 24.5323,69.6000 Z" fill="none" stroke="black" stroke-width="0.1" /></g>
<g transform="translate(2.0000,215.4000)"><path d="M 25.8890,67.2500 L 24.5323,69.6000 L 27.2458,69.6000 Z" fill="none" stroke="black" stroke-width="0.1" /></g>
<g transform="translate(2.0000,215.4000)"><path d="M 32.6729,60.2000 L 31.3161,62.5500 L 34.0297,62.5500 Z" fill="none" stroke="black" stroke-width="0.1" /></g>
<g transform="translate(2.0000,215.4000)"><path d="M 31.3161,62.5500 L 29.9594,64.9000 L 32.6729,64.9000 Z" fill="none" stroke="black" stroke-width="0.1" /></g>
<g transform="translate(2.0000,215.4000)"><path d="M 34.0297,62.5500 L 32.6729,64.9000 L 35.3865,64.9000 Z" fill="none" stroke="black" stroke-width="0.1" /></g>
<g transform="translate(2.0000,215.4000)"><path d="M 29.9594,64.9000 L 28.6026,67.2500 L 31.3161,67.2500 Z" fill="none" stroke="black" stroke-width="0.1" /></g>
<g transform="translate(2.0000,215.4000)"><path d="M 28.6026,67.2500 L 27.2458,69.6000 L 29.9594,69.6000 Z" fill="none" stroke="black" stroke-width="0.1" /></g>
<g transform="translate(2.0000,215.4000)"><path d="M 31.3161,67.2500 L 29.9594,69.6000 L 32.6729,69.6000 Z" fill="none" stroke="black" stroke-width="0.1" /></g>
<g transform="translate(2.0000,215.4000)"><path d="M 35.3865,64.9000 L 34.0297,67.2500 L 36.7432,67.2500 Z" fill="none" stroke="black" stroke-width="0.1" /></g>
<g transform="translate(2.0000,215.4000)"><path d="M 34.0297,67.2500 L 32.6729,69.6000 L 35.3865,69.6000 Z" fill="none" stroke="black" stroke-width="0.1" /></g>
<g transform="translate(2.0000,215.4000)"><path d="M 36.7432,67.2500 L 35.3865,69.6000 L 38.1000,69.6000 Z" fill="none" stroke="black" stroke-width="0.1" /></g>
<g transform="translate(2.0000,215.4000)"><path d="M 48.9542,50.8000 L 47.5974,53.1500 L 50.3110,53.1500 Z" fill="none" stroke="black" stroke-width="0.1" /></g>
<g transform="translate(2.0000,215.4000)"><path d="M 47.5974,53.1500 L 46.2406,55.5000 L 48.9542,55.5000 Z" fill="none" stroke="black" stroke-width="0.1" /></g>
<g transform="translate(2.0000,215.4000)"><path d="M 50.3110,53.1500 L 48.9542,55.5000 L 51.6677,55.5000 Z" fill="none" stroke="black" stroke-width="0.1" /></g>
<g transform="translate(2.0000,215.4000)"><path d="M 46.2406,55.5000 L 44.8839,57.8500 L 47.5974,57.8500 Z" fill="none" stroke="black" stroke-width="0.1" /></g>
<g transform="translate(2.0000,215.4000)"><path d="M 44.8839,57.8500 L 43.5271,60.2000 L 46.2406,60.2000 Z" fill="none" stroke="black" stroke-width="0.1" /></g>
<g transform="translate(2.0000,215.4000)"><path d="M 47.5974,57.8500 L 46.2406,60.2000 L 48.9542,60.2000 Z" fill="none" stroke="black" stroke-width="0.1" /></g>
<g transform="translate(2.0000,215.4000)"><path d="M 51.6677,55.5000 L 50.3110,57.8500 L 53.0245,57.8500 Z" fill="none" stroke="black" stroke-width="0.1" /></g>
<g transform="translate(2.0000,215.4000)"><path d="M 50.3110,57.8500 L 48.9542,60.2000 L 51.6677,60.2000 Z" fill="none" stroke="black" stroke-width="0.1" /></g>
<g transform="translate(2.0000,215.4000)"><path d="M 53.0245,57.8500 L 51.6677,60.2000 L 54.3813,60.2000 Z" fill="none" stroke="black" stroke-width="0.1" /></g>
<g transform="translate(2.0000,215.4000)"><path d="M 43.5271,60.2000 L 42.1703,62.5500 L 44.8839,62.5500 Z" fill="none" stroke="black" stroke-width="0.1" /></g>
<g transform="translate(2.0000,215.4000)"><path d="M 42.1703,62.5500 L 40.8135,64.9000 L 43.5271,64.9000 Z" fill="none" stroke="black" stroke-width="0.1" /></g>
<g transform="translate(2.0000,215.4000)"><path d="M 44.8839,62.5500 L 43.5271,64.9000 L 46.2406,64.9000 Z" fill="none" stroke="black" stroke-width="0.1" /></g>
<g transform="translate(2.0000,215.4000)"><path d="M 40.8135,64.9000 L 39.4568,67.2500 L 42.1703,67.2500 Z" fill="none" stroke="black" stroke-width="0.1" /></g>
<g transform="translate(2.0000,215.4000)"><path d="M 39.4568,67.2500 L 38.1000,69.6000 L 40.8135,69.6000 Z" fill="none" stroke="black" stroke-width="0.1" /></g>
<g transform="translate(2.0000,215.4000)"><path d="M 42.1703,67.2500 L 40.8135,69.6000 L 43.5271,69.6000 Z" fill="none" stroke="black" stroke-width="0.1" /></g>
<g transform="translate(2.0000,215.4000)"><path d="M 46.2406,64.9000 L 44.8839,67.2500 L 47.5974,67.2500 Z" fill="none" stroke="black" stroke-width="0.1" /></g>
<g transform="translate(2.0000,215.4000)"><path d="M 44.8839,67.2500 L 43.5271,69.6000 L 46.2406,69.6000 Z" fill="none" stroke="black" stroke-width="0.1" /></g>
<g transform="translate(2.0000,215.4000)"><path d="M 47.5974,67.2500 L 46.2406,69.6000 L 48.9542,69.6000 Z" fill="none" stroke="black" stroke-width="0.1" /></g>
<g transform="translate(2.0000,215.4000)"><path d="M 54.3813,60.2000 L 53.0245,62.5500 L 55.7381,62.5500 Z" fill="none" stroke="black" stroke-width="0.1" /></g>
<g transform="translate(2.0000,215.4000)"><path d="M 53.0245,62.5500 L 51.6677,64.9000 L 54.3813,64.9000 Z" fill="none" stroke="black" stroke-width="0.1" /></g>
<g transform="translate(2.0000,215.4000)"><path d="M 55.7381,62.5500 L 54.3813,64.9000 L 57.0948,64.9000 Z" fill="none" stroke="black" stroke-width="0.1" /></g>
<g transform="translate(2.0000,215.4000)"><path d="M 51.6677,64.9000 L 50.3110,67.2500 L 53.0245,67.2500 Z" fill="none" stroke="black" stroke-width="0.1" /></g>
<g transform="translate(2.0000,215.4000)"><path d="M 50.3110,67.2500 L 48.9542,69.6000 L 51.6677,69.6000 Z" fill="none" stroke="black" stroke-width="0.1" /></g>
<g transform="translate(2.0000,215.4000)"><path d="M 53.0245,67.2500 L 51.6677,69.6000 L 54.3813,69.6000 Z" fill="none" stroke="black" stroke-width="0.1" /></g>
<g transform="translate(2.0000,215.4000)"><path d="M 57.0948,64.9000 L 55.7381,67.2500 L 58.4516,67.2500 Z" fill="none" stroke="black" stroke-width="0.1" /></g>
<g transform="translate(2.0000,215.4000)"><path d="M 55.7381,67.2500 L 54.3813,69.6000 L 57.0948,69.6000 Z" fill="none" stroke="black" stroke-width="0.1" /></g>
<g transform="translate(2.0000,215.4000)"><path d="M 58.4516,67.2500 L 57.0948,69.6000 L 59.8084,69.6000 Z" fill="none" stroke="black" stroke-width="0.1" /></g>
<g transform="translate(2.0000,322.1000)"><path d="M 0.0000 0.0000 L 6.0000 0.0000 L 6.0000 2.9000 L 18.0000 2.9000 L 18.0000 0.0000 L 134.4000 0.0000 L 134.4000 2.9000 L 146.4000 2.9000 L 146.4000 0.0000 L 152.4000 0.0000 L 152.4000 6.0000 L 149.5000 6.0000 L 149.5000 18.0000 L 152.4000 18.0000 L 152.4000 58.2000 L 149.5000 58.2000 L 149.5000 70.2000 L 152.4000 70.2000 L 152.4000 76.2000 L 146.4000 76.2000 L 146.4000 73.3000 L 134.4000 73.3000 L 134.4000 76.2000 L 18.0000 76.2000 L 18.0000 73.3000 L 6.0000 73.3000 L 6.0000 76.2000 L 0.0000 76.2000 L 0.0000 70.2000 L 2.9000 70.2000 L 2.9000 58.2000 L 0.0000 58.2000 L 0.0000 18.0000 L 2.9000 18.0000 L 2.9000 6.0000 L 0.0000 6.0000 Z" fill="none" stroke="red" stroke-width="0.1" /></g>
<rect x="54.4000" y="325.1000" width="2.8000" height="70.2000" fill="none" stroke="red" stroke-width="0.1" />
<rect x="11.7024" y="331.8024" width="4.5952" height="4.5952" fill="none" stroke="red" stroke-width="0.1" />
<rect x="16.2976" y="332.9000" width="10.0000" height="2.4000" fill="none" stroke="red" stroke-width="0.1" />
<rect x="11.7024" y="384.0024" width="4.5952" height="4.5952" fill="none" stroke="red" stroke-width="0.1" />
<rect x="16.2976" y="385.1000" width="10.0000" height="2.4000" fill="none" stroke="red" stroke-width="0.1" />
<rect x="140.1024" y="331.8024" width="4.5952" height="4.5952" fill="none" stroke="red" stroke-width="0.1" />
<rect x="144.6976" y="332.9000" width="10.0000" height="2.4000" fill="none" stroke="red" stroke-width="0.1" />
<rect x="140.1024" y="384.0024" width="4.5952" height="4.5952" fill="none" stroke="red" stroke-width="0.1" />
<rect x="144.6976" y="385.1000" width="10.0000" height="2.4000" fill="none" stroke="red" stroke-width="0.1" />
<rect x="11.7024" y="331.8024" width="4.5952" height="4.5952" fill="none" stroke="red" stroke-width="0.1" />
<rect x="16.2976" y="332.9000" width="10.0000" height="2.4000" fill="none" stroke="red" stroke-width="0.1" />
<rect x="140.1024" y="331.8024" width="4.5952" height="4.5952" fill="none" stroke="red" stroke-width="0.1" />
<rect x="144.6976" y="332.9000" width="10.0000" height="2.4000" fill="none" stroke="red" stroke-width="0.1" />
<rect x="11.7024" y="384.0024" width="4.5952" height="4.5952" fill="none" stroke="red" stroke-width="0.1" />
<rect x="16.2976" y="385.1000" width="10.0000" height="2.4000" fill="none" stroke="red" stroke-width="0.1" />
<rect x="140.1024" y="384.0024" width="4.5952" height="4.5952" fill="none" stroke="red" stroke-width="0.1" />
<rect x="144.6976" y="385.1000" width="10.0000" height="2.4000" fill="none" stroke="red" stroke-width="0.1" />
<rect x="83.3000" y="215.4000" width="70.2000" height="98.6000" fill="none" stroke="red" stroke-width="0.1" />
</svg>
