<?xml version="1.0" ?>
<svg xmlns="http://www.w3.org/2000/svg" width="434.4mm" height="206.2mm" viewBox="0 0 434.4 206.2" unit="mm">
  <g id="tslots">
    <path d="M1.5,49.699999999999996 A1.1,1.1 0 0 1 2.6,50.8 A1.1,1.1 0 0 1 1.5,51.9 A1.1,1.1 0 0 1 0.3999999999999999,50.8 A1.1,1.1 0 0 1 1.5,49.699999999999996" fill="none" stroke="#000" stroke-width="0.1"/>
    <path d="M49.3,49.699999999999996 A1.1,1.1 0 0 1 50.4,50.8 A1.1,1.1 0 0 1 49.3,51.9 A1.1,1.1 0 0 1 48.199999999999996,50.8 A1.1,1.1 0 0 1 49.3,49.699999999999996" fill="none" stroke="#000" stroke-width="0.1"/>
    <g transform="translate(0,0)">
      <path d="M24.299999999999997,95.1 h2.2 v6.5 h-2.2 z" fill="none" stroke="#000" stroke-width="0.1"/>
      <path d="M23.049999999999997,97.6 h4.7 v1.5 h-4.7 z" fill="none" stroke="#000" stroke-width="0.1"/>
    </g>
    <path d="M54.3,49.699999999999996 A1.1,1.1 0 0 1 55.4,50.8 A1.1,1.1 0 0 1 54.3,51.9 A1.1,1.1 0 0 1 53.199999999999996,50.8 A1.1,1.1 0 0 1 54.3,49.699999999999996" fill="none" stroke="#000" stroke-width="0.1"/>
    <path d="M102.1,49.699999999999996 A1.1,1.1 0 0 1 103.19999999999999,50.8 A1.1,1.1 0 0 1 102.1,51.9 A1.1,1.1 0 0 1 101.0,50.8 A1.1,1.1 0 0 1 102.1,49.699999999999996" fill="none" stroke="#000" stroke-width="0.1"/>
    <g transform="translate(52.8,0)">
      <path d="M24.299999999999997,95.1 h2.2 v6.5 h-2.2 z" fill="none" stroke="#000" stroke-width="0.1"/>
      <path d="M23.049999999999997,97.6 h4.7 v1.5 h-4.7 z" fill="none" stroke="#000" stroke-width="0.1"/>
    </g>
    <g transform="translate(108.6,0)">
      <path d="M0,49.699999999999996 h6.5 v2.2 h-6.5 z" fill="none" stroke="#000" stroke-width="0.1"/>
      <path d="M2.5,48.449999999999996 h1.5 v4.7 h-1.5 z" fill="none" stroke="#000" stroke-width="0.1"/>
    </g>
    <g transform="translate(108.6,0)">
      <path d="M95.1,49.699999999999996 h6.5 v2.2 h-6.5 z" fill="none" stroke="#000" stroke-width="0.1"/>
      <path d="M97.6,48.449999999999996 h1.5 v4.7 h-1.5 z" fill="none" stroke="#000" stroke-width="0.1"/>
    </g>
    <g transform="translate(108.6,0)">
      <path d="M49.699999999999996,95.1 h2.2 v6.5 h-2.2 z" fill="none" stroke="#000" stroke-width="0.1"/>
      <path d="M48.449999999999996,97.6 h4.7 v1.5 h-4.7 z" fill="none" stroke="#000" stroke-width="0.1"/>
    </g>
    <g transform="translate(218.2,0)">
      <path d="M0,49.699999999999996 h6.5 v2.2 h-6.5 z" fill="none" stroke="#000" stroke-width="0.1"/>
      <path d="M2.5,48.449999999999996 h1.5 v4.7 h-1.5 z" fill="none" stroke="#000" stroke-width="0.1"/>
    </g>
    <g transform="translate(218.2,0)">
      <path d="M95.1,49.699999999999996 h6.5 v2.2 h-6.5 z" fill="none" stroke="#000" stroke-width="0.1"/>
      <path d="M97.6,48.449999999999996 h1.5 v4.7 h-1.5 z" fill="none" stroke="#000" stroke-width="0.1"/>
    </g>
    <g transform="translate(218.2,0)">
      <path d="M49.699999999999996,95.1 h2.2 v6.5 h-2.2 z" fill="none" stroke="#000" stroke-width="0.1"/>
      <path d="M48.449999999999996,97.6 h4.7 v1.5 h-4.7 z" fill="none" stroke="#000" stroke-width="0.1"/>
    </g>
    <path d="M378.59999999999997,0.3999999999999999 A1.1,1.1 0 0 1 379.7,1.5 A1.1,1.1 0 0 1 378.59999999999997,2.6 A1.1,1.1 0 0 1 377.49999999999994,1.5 A1.1,1.1 0 0 1 378.59999999999997,0.3999999999999999" fill="none" stroke="#000" stroke-width="0.1"/>
    <path d="M378.59999999999997,48.199999999999996 A1.1,1.1 0 0 1 379.7,49.3 A1.1,1.1 0 0 1 378.59999999999997,50.4 A1.1,1.1 0 0 1 377.49999999999994,49.3 A1.1,1.1 0 0 1 378.59999999999997,48.199999999999996" fill="none" stroke="#000" stroke-width="0.1"/>
    <path d="M326.29999999999995,24.299999999999997 A1.1,1.1 0 0 1 327.4,25.4 A1.1,1.1 0 0 1 326.29999999999995,26.5 A1.1,1.1 0 0 1 325.19999999999993,25.4 A1.1,1.1 0 0 1 326.29999999999995,24.299999999999997" fill="none" stroke="#000" stroke-width="0.1"/>
    <path d="M430.9,24.299999999999997 A1.1,1.1 0 0 1 432.0,25.4 A1.1,1.1 0 0 1 430.9,26.5 A1.1,1.1 0 0 1 429.79999999999995,25.4 A1.1,1.1 0 0 1 430.9,24.299999999999997" fill="none" stroke="#000" stroke-width="0.1"/>
  </g>
  <g id="divider_slots">
    <path d="M141.11666666666667,0 h2.7 v95.6 h-2.7 z" fill="none" stroke="#000" stroke-width="0.1"/>
    <path d="M250.71666666666664,0 h2.7 v95.6 h-2.7 z" fill="none" stroke="#000" stroke-width="0.1"/>
  </g>
  <g id="outlines">
    <g id="left" transform="translate(0,0)">
      <path d="M0,0 L0,19.549999999999997 L2.7,19.549999999999997 L2.7,31.25 L0,31.25 L0,70.35 L2.7,70.35 L2.7,82.04999999999998 L0,82.04999999999998 L0,101.6 L6.699999999999999,101.6 L6.699999999999999,104.6 L18.7,104.6 L18.7,101.6 L32.099999999999994,101.6 L32.099999999999994,104.6 L44.099999999999994,104.6 L44.099999999999994,101.6 L50.8,101.6 L50.8,82.04999999999998 L48.099999999999994,82.04999999999998 L48.099999999999994,70.35 L50.8,70.35 L50.8,31.25 L48.099999999999994,31.25 L48.099999999999994,19.549999999999997 L50.8,19.549999999999997 L50.8,0 L0,0 z" fill="none" stroke="#000" stroke-width="0.1"/>
    </g>
    <g id="right" transform="translate(52.8,0)">
      <path d="M0,0 L0,19.549999999999997 L2.7,19.549999999999997 L2.7,31.25 L0,31.25 L0,70.35 L2.7,70.35 L2.7,82.04999999999998 L0,82.04999999999998 L0,101.6 L6.699999999999999,101.6 L6.699999999999999,104.6 L18.7,104.6 L18.7,101.6 L32.099999999999994,101.6 L32.099999999999994,104.6 L44.099999999999994,104.6 L44.099999999999994,101.6 L50.8,101.6 L50.8,82.04999999999998 L48.099999999999994,82.04999999999998 L48.099999999999994,70.35 L50.8,70.35 L50.8,31.25 L48.099999999999994,31.25 L48.099999999999994,19.549999999999997 L50.8,19.549999999999997 L50.8,0 L0,0 z" fill="none" stroke="#000" stroke-width="0.1"/>
    </g>
    <g id="front" transform="translate(108.6,0)">
      <path d="M0,0 L0,19.4 L-3,19.4 L-3,31.4 L0,31.4 L0,70.19999999999999 L-3,70.19999999999999 L-3,82.19999999999999 L0,82.19999999999999 L0,101.6 L19.4,101.6 L19.4,104.6 L31.4,104.6 L31.4,101.6 L70.19999999999999,101.6 L70.19999999999999,104.6 L82.19999999999999,104.6 L82.19999999999999,101.6 L101.6,101.6 L101.6,82.19999999999999 L104.6,82.19999999999999 L104.6,70.19999999999999 L101.6,70.19999999999999 L101.6,31.4 L104.6,31.4 L104.6,19.4 L101.6,19.4 L101.6,0 L0,0 z" fill="none" stroke="#000" stroke-width="0.1"/>
    </g>
    <g id="back" transform="translate(218.2,0)">
      <path d="M0,0 L0,19.4 L-3,19.4 L-3,31.4 L0,31.4 L0,70.19999999999999 L-3,70.19999999999999 L-3,82.19999999999999 L0,82.19999999999999 L0,101.6 L19.4,101.6 L19.4,104.6 L31.4,104.6 L31.4,101.6 L70.19999999999999,101.6 L70.19999999999999,104.6 L82.19999999999999,104.6 L82.19999999999999,101.6 L101.6,101.6 L101.6,82.19999999999999 L104.6,82.19999999999999 L104.6,70.19999999999999 L101.6,70.19999999999999 L101.6,31.4 L104.6,31.4 L104.6,19.4 L101.6,19.4 L101.6,0 L0,0 z" fill="none" stroke="#000" stroke-width="0.1"/>
    </g>
    <g id="bottom" transform="translate(324.79999999999995,0)">
      <path d="M0,0 L3,0 L22.549999999999997,0 L22.549999999999997,2.7 L34.25,2.7 L34.25,0 L73.35,0 L73.35,2.7 L85.04999999999998,2.7 L85.04999999999998,0 L107.6,0 L107.6,6.85 L104.89999999999999,6.85 L104.89999999999999,18.549999999999997 L107.6,18.549999999999997 L107.6,32.24999999999999 L104.89999999999999,32.24999999999999 L104.89999999999999,43.949999999999996 L107.6,43.949999999999996 L107.6,50.8 L85.04999999999998,50.8 L85.04999999999998,48.099999999999994 L73.35,48.099999999999994 L73.35,50.8 L34.25,50.8 L34.25,48.099999999999994 L22.549999999999997,48.099999999999994 L22.549999999999997,50.8 L3,50.8 L0,50.8 L0,43.949999999999996 L2.7,43.949999999999996 L2.7,32.24999999999999 L0,32.24999999999999 L0,18.549999999999997 L2.7,18.549999999999997 L2.7,6.85 L0,6.85 z" fill="none" stroke="#000" stroke-width="0.1"/>
    </g>
    <g id="div1" transform="translate(0,108.6)">
      <path d="M0,0 h50.8 v95.6 h-50.8 z" fill="none" stroke="#000" stroke-width="0.1"/>
    </g>
  </g>
  <g id="engravings">
    <g transform="translate(0,0) translate(5.0,33.13308176279745)">
      <path d="M20.4,1.104182389825159 L19.7625,0.0 L21.037499999999998,0.0 z M19.7625,2.208364779650318 L19.125,1.104182389825159 L20.4,1.104182389825159 z M21.037499999999998,2.208364779650318 L20.4,1.104182389825159 L21.674999999999997,1.104182389825159 z M19.125,3.3125471694754767 L18.4875,2.208364779650318 L19.7625,2.208364779650318 z M18.4875,4.416729559300636 L17.85,3.3125471694754776 L19.125,3.3125471694754776 z M19.7625,4.416729559300636 L19.125,3.3125471694754776 L20.4,3.3125471694754776 z M21.674999999999997,3.3125471694754767 L21.037499999999998,2.208364779650318 L22.312499999999996,2.208364779650318 z M21.037499999999998,4.416729559300636 L20.4,3.3125471694754776 L21.674999999999997,3.3125471694754776 z M22.312499999999996,4.416729559300636 L21.674999999999997,3.3125471694754776 L22.949999999999996,3.3125471694754776 z M17.849999999999998,5.520911949125795 L17.2125,4.416729559300636 L18.487499999999997,4.416729559300636 z M17.2125,6.625094338950953 L16.575,5.520911949125795 L17.849999999999998,5.520911949125795 z M18.487499999999997,6.625094338950953 L17.849999999999998,5.520911949125795 L19.124999999999996,5.520911949125795 z M16.575,7.729276728776114 L15.9375,6.625094338950955 L17.2125,6.625094338950955 z M15.9375,8.833459118601272 L15.3,7.729276728776114 L16.575,7.729276728776114 z M17.2125,8.833459118601272 L16.575,7.729276728776114 L17.849999999999998,7.729276728776114 z M19.124999999999996,7.729276728776114 L18.487499999999997,6.625094338950955 L19.762499999999996,6.625094338950955 z M18.487499999999997,8.833459118601272 L17.849999999999998,7.729276728776114 L19.124999999999996,7.729276728776114 z M19.762499999999996,8.833459118601272 L19.124999999999996,7.729276728776114 L20.399999999999995,7.729276728776114 z M22.95,5.520911949125795 L22.3125,4.416729559300636 L23.5875,4.416729559300636 z M22.3125,6.625094338950953 L21.675,5.520911949125795 L22.95,5.520911949125795 z M23.5875,6.625094338950953 L22.95,5.520911949125795 L24.224999999999998,5.520911949125795 z M21.675,7.729276728776114 L21.0375,6.625094338950955 L22.3125,6.625094338950955 z M21.0375,8.833459118601272 L20.400000000000002,7.729276728776114 L21.675,7.729276728776114 z M22.3125,8.833459118601272 L21.675,7.729276728776114 L22.95,7.729276728776114 z M24.224999999999998,7.729276728776114 L23.5875,6.625094338950955 L24.862499999999997,6.625094338950955 z M23.5875,8.833459118601272 L22.95,7.729276728776114 L24.224999999999998,7.729276728776114 z M24.862499999999997,8.833459118601272 L24.224999999999998,7.729276728776114 L25.499999999999996,7.729276728776114 z M15.299999999999999,9.937641508426431 L14.6625,8.833459118601272 L15.937499999999998,8.833459118601272 z M14.6625,11.04182389825159 L14.025,9.937641508426431 L15.299999999999999,9.937641508426431 z M15.937499999999998,11.04182389825159 L15.299999999999999,9.937641508426431 L16.575,9.937641508426431 z M14.024999999999999,12.146006288076748 L13.3875,11.04182389825159 L14.662499999999998,11.04182389825159 z M13.3875,13.250188677901907 L12.75,12.146006288076748 L14.024999999999999,12.146006288076748 z M14.662499999999998,13.250188677901907 L14.024999999999999,12.146006288076748 L15.299999999999997,12.146006288076748 z M16.575,12.146006288076748 L15.9375,11.04182389825159 L17.2125,11.04182389825159 z M15.9375,13.250188677901907 L15.3,12.146006288076748 L16.575,12.146006288076748 z M17.2125,13.250188677901907 L16.575,12.146006288076748 L17.849999999999998,12.146006288076748 z M12.75,14.354371067727069 L12.1125,13.25018867790191 L13.3875,13.25018867790191 z M12.1125,15.458553457552227 L11.475000000000001,14.354371067727069 L12.75,14.354371067727069 z M13.3875,15.458553457552227 L12.75,14.354371067727069 L14.024999999999999,14.354371067727069 z M11.475,16.562735847377386 L10.8375,15.458553457552226 L12.112499999999999,15.458553457552226 z M10.8375,17.666918237202548 L10.200000000000001,16.562735847377386 L11.475,16.562735847377386 z M12.112499999999999,17.666918237202548 L11.475,16.562735847377386 L12.749999999999998,16.562735847377386 z M14.025,16.562735847377386 L13.387500000000001,15.458553457552226 L14.6625,15.458553457552226 z M13.387500000000001,17.666918237202548 L12.750000000000002,16.562735847377386 L14.025,16.562735847377386 z M14.6625,17.666918237202548 L14.025,16.562735847377386 L15.299999999999999,16.562735847377386 z M17.849999999999998,14.354371067727069 L17.2125,13.25018867790191 L18.487499999999997,13.25018867790191 z M17.2125,15.458553457552227 L16.575,14.354371067727069 L17.849999999999998,14.354371067727069 z M18.487499999999997,15.458553457552227 L17.849999999999998,14.354371067727069 L19.124999999999996,14.354371067727069 z M16.575,16.562735847377386 L15.9375,15.458553457552226 L17.2125,15.458553457552226 z M15.9375,17.666918237202548 L15.3,16.562735847377386 L16.575,16.562735847377386 z M17.2125,17.666918237202548 L16.575,16.562735847377386 L17.849999999999998,16.562735847377386 z M19.124999999999996,16.562735847377386 L18.487499999999997,15.458553457552226 L19.762499999999996,15.458553457552226 z M18.487499999999997,17.666918237202548 L17.849999999999998,16.562735847377386 L19.124999999999996,16.562735847377386 z M19.762499999999996,17.666918237202548 L19.124999999999996,16.562735847377386 L20.399999999999995,16.562735847377386 z M25.5,9.937641508426431 L24.8625,8.833459118601272 L26.1375,8.833459118601272 z M24.8625,11.04182389825159 L24.225,9.937641508426431 L25.5,9.937641508426431 z M26.1375,11.04182389825159 L25.5,9.937641508426431 L26.775,9.937641508426431 z M24.225,12.146006288076748 L23.587500000000002,11.04182389825159 L24.8625,11.04182389825159 z M23.587500000000002,13.250188677901907 L22.950000000000003,12.146006288076748 L24.225,12.146006288076748 z M24.8625,13.250188677901907 L24.225,12.146006288076748 L25.5,12.146006288076748 z M26.775,12.146006288076748 L26.1375,11.04182389825159 L27.412499999999998,11.04182389825159 z M26.1375,13.250188677901907 L25.5,12.146006288076748 L26.775,12.146006288076748 z M27.412499999999998,13.250188677901907 L26.775,12.146006288076748 L28.049999999999997,12.146006288076748 z M22.95,14.354371067727069 L22.3125,13.25018867790191 L23.5875,13.25018867790191 z M22.3125,15.458553457552227 L21.675,14.354371067727069 L22.95,14.354371067727069 z M23.5875,15.458553457552227 L22.95,14.354371067727069 L24.224999999999998,14.354371067727069 z M21.675,16.562735847377386 L21.0375,15.458553457552226 L22.3125,15.458553457552226 z M21.0375,17.666918237202548 L20.400000000000002,16.562735847377386 L21.675,16.562735847377386 z M22.3125,17.666918237202548 L21.675,16.562735847377386 L22.95,16.562735847377386 z M24.224999999999998,16.562735847377386 L23.5875,15.458553457552226 L24.862499999999997,15.458553457552226 z M23.5875,17.666918237202548 L22.95,16.562735847377386 L24.224999999999998,16.562735847377386 z M24.862499999999997,17.666918237202548 L24.224999999999998,16.562735847377386 L25.499999999999996,16.562735847377386 z M28.05,14.354371067727069 L27.4125,13.25018867790191 L28.6875,13.25018867790191 z M27.4125,15.458553457552227 L26.775000000000002,14.354371067727069 L28.05,14.354371067727069 z M28.6875,15.458553457552227 L28.05,14.354371067727069 L29.325,14.354371067727069 z M26.775000000000002,16.562735847377386 L26.137500000000003,15.458553457552226 L27.4125,15.458553457552226 z M26.137500000000003,17.666918237202548 L25.500000000000004,16.562735847377386 L26.775000000000002,16.562735847377386 z M27.4125,17.666918237202548 L26.775000000000002,16.562735847377386 L28.05,16.562735847377386 z M29.325,16.562735847377386 L28.6875,15.458553457552226 L29.9625,15.458553457552226 z M28.6875,17.666918237202548 L28.05,16.562735847377386 L29.325,16.562735847377386 z M29.9625,17.666918237202548 L29.325,16.562735847377386 L30.599999999999998,16.562735847377386 z M10.2,18.771100627027703 L9.5625,17.66691823720254 L10.837499999999999,17.66691823720254 z M9.5625,19.875283016852865 L8.925,18.771100627027703 L10.2,18.771100627027703 z M10.837499999999999,19.875283016852865 L10.2,18.771100627027703 L11.474999999999998,18.771100627027703 z M8.924999999999999,20.97946540667802 L8.2875,19.87528301685286 L9.562499999999998,19.87528301685286 z M8.2875,22.083647796503183 L7.6499999999999995,20.97946540667802 L8.924999999999999,20.97946540667802 z M9.562499999999998,22.083647796503183 L8.924999999999999,20.97946540667802 L10.199999999999998,20.97946540667802 z M11.475,20.97946540667802 L10.8375,19.87528301685286 L12.112499999999999,19.87528301685286 z M10.8375,22.083647796503183 L10.200000000000001,20.97946540667802 L11.475,20.97946540667802 z M12.112499999999999,22.083647796503183 L11.475,20.97946540667802 L12.749999999999998,20.97946540667802 z M7.6499999999999995,23.187830186328338 L7.012499999999999,22.083647796503175 L8.2875,22.083647796503175 z M7.012499999999999,24.2920125761535 L6.374999999999999,23.187830186328338 L7.6499999999999995,23.187830186328338 z M8.2875,24.2920125761535 L7.6499999999999995,23.187830186328338 L8.924999999999999,23.187830186328338 z M6.375,25.396194965978655 L5.7375,24.292012576153493 L7.0125,24.292012576153493 z M5.7375,26.500377355803817 L5.1,25.396194965978655 L6.375,25.396194965978655 z M7.0125,26.500377355803817 L6.375,25.396194965978655 L7.65,25.396194965978655 z M8.924999999999999,25.396194965978655 L8.2875,24.292012576153493 L9.562499999999998,24.292012576153493 z M8.2875,26.500377355803817 L7.6499999999999995,25.396194965978655 L8.924999999999999,25.396194965978655 z M9.562499999999998,26.500377355803817 L8.924999999999999,25.396194965978655 L10.199999999999998,25.396194965978655 z M12.75,23.187830186328338 L12.1125,22.083647796503175 L13.3875,22.083647796503175 z M12.1125,24.2920125761535 L11.475000000000001,23.187830186328338 L12.75,23.187830186328338 z M13.3875,24.2920125761535 L12.75,23.187830186328338 L14.024999999999999,23.187830186328338 z M11.475,25.396194965978655 L10.8375,24.292012576153493 L12.112499999999999,24.292012576153493 z M10.8375,26.500377355803817 L10.200000000000001,25.396194965978655 L11.475,25.396194965978655 z M12.112499999999999,26.500377355803817 L11.475,25.396194965978655 L12.749999999999998,25.396194965978655 z M14.025,25.396194965978655 L13.387500000000001,24.292012576153493 L14.6625,24.292012576153493 z M13.387500000000001,26.500377355803817 L12.750000000000002,25.396194965978655 L14.025,25.396194965978655 z M14.6625,26.500377355803817 L14.025,25.396194965978655 L15.299999999999999,25.396194965978655 z M5.1,27.60455974562898 L4.4624999999999995,26.500377355803817 L5.7375,26.500377355803817 z M4.4624999999999995,28.70874213545414 L3.8249999999999993,27.60455974562898 L5.1,27.60455974562898 z M5.7375,28.70874213545414 L5.1,27.60455974562898 L6.375,27.60455974562898 z M3.8249999999999997,29.812924525279296 L3.1875,28.708742135454134 L4.4624999999999995,28.708742135454134 z M3.1875,30.91710691510446 L2.55,29.812924525279296 L3.825,29.812924525279296 z M4.4624999999999995,30.91710691510446 L3.8249999999999993,29.812924525279296 L5.1,29.812924525279296 z M6.375,29.812924525279296 L5.7375,28.708742135454134 L7.0125,28.708742135454134 z M5.7375,30.91710691510446 L5.1,29.812924525279296 L6.375,29.812924525279296 z M7.0125,30.91710691510446 L6.375,29.812924525279296 L7.65,29.812924525279296 z M2.55,32.02128930492961 L1.9124999999999999,30.917106915104448 L3.1875,30.917106915104448 z M1.9124999999999999,33.125471694754765 L1.275,32.02128930492961 L2.55,32.02128930492961 z M3.1875,33.125471694754765 L2.55,32.02128930492961 L3.825,32.02128930492961 z M1.275,34.229654084579934 L0.6375,33.12547169475478 L1.9124999999999999,33.12547169475478 z M0.6375,35.33383647440509 L0.0,34.229654084579934 L1.275,34.229654084579934 z M1.9124999999999999,35.33383647440509 L1.275,34.229654084579934 L2.55,34.229654084579934 z M3.8249999999999997,34.229654084579934 L3.1875,33.12547169475478 L4.4624999999999995,33.12547169475478 z M3.1875,35.33383647440509 L2.55,34.229654084579934 L3.825,34.229654084579934 z M4.4624999999999995,35.33383647440509 L3.8249999999999993,34.229654084579934 L5.1,34.229654084579934 z M7.6499999999999995,32.02128930492961 L7.012499999999999,30.917106915104448 L8.2875,30.917106915104448 z M7.012499999999999,33.125471694754765 L6.374999999999999,32.02128930492961 L7.6499999999999995,32.02128930492961 z M8.2875,33.125471694754765 L7.6499999999999995,32.02128930492961 L8.924999999999999,32.02128930492961 z M6.375,34.229654084579934 L5.7375,33.12547169475478 L7.0125,33.12547169475478 z M5.7375,35.33383647440509 L5.1,34.229654084579934 L6.375,34.229654084579934 z M7.0125,35.33383647440509 L6.375,34.229654084579934 L7.65,34.229654084579934 z M8.924999999999999,34.229654084579934 L8.2875,33.12547169475478 L9.562499999999998,33.12547169475478 z M8.2875,35.33383647440509 L7.6499999999999995,34.229654084579934 L8.924999999999999,34.229654084579934 z M9.562499999999998,35.33383647440509 L8.924999999999999,34.229654084579934 L10.199999999999998,34.229654084579934 z M15.299999999999999,27.60455974562898 L14.6625,26.500377355803817 L15.937499999999998,26.500377355803817 z M14.6625,28.70874213545414 L14.025,27.60455974562898 L15.299999999999999,27.60455974562898 z M15.937499999999998,28.70874213545414 L15.299999999999999,27.60455974562898 L16.575,27.60455974562898 z M14.024999999999999,29.812924525279296 L13.3875,28.708742135454134 L14.662499999999998,28.708742135454134 z M13.3875,30.91710691510446 L12.75,29.812924525279296 L14.024999999999999,29.812924525279296 z M14.662499999999998,30.91710691510446 L14.024999999999999,29.812924525279296 L15.299999999999997,29.812924525279296 z M16.575,29.812924525279296 L15.9375,28.708742135454134 L17.2125,28.708742135454134 z M15.9375,30.91710691510446 L15.3,29.812924525279296 L16.575,29.812924525279296 z M17.2125,30.91710691510446 L16.575,29.812924525279296 L17.849999999999998,29.812924525279296 z M12.75,32.02128930492961 L12.1125,30.917106915104448 L13.3875,30.917106915104448 z M12.1125,33.125471694754765 L11.475000000000001,32.02128930492961 L12.75,32.02128930492961 z M13.3875,33.125471694754765 L12.75,32.02128930492961 L14.024999999999999,32.02128930492961 z M11.475,34.229654084579934 L10.8375,33.12547169475478 L12.112499999999999,33.12547169475478 z M10.8375,35.33383647440509 L10.200000000000001,34.229654084579934 L11.475,34.229654084579934 z M12.112499999999999,35.33383647440509 L11.475,34.229654084579934 L12.749999999999998,34.229654084579934 z M14.025,34.229654084579934 L13.387500000000001,33.12547169475478 L14.6625,33.12547169475478 z M13.387500000000001,35.33383647440509 L12.750000000000002,34.229654084579934 L14.025,34.229654084579934 z M14.6625,35.33383647440509 L14.025,34.229654084579934 L15.299999999999999,34.229654084579934 z M17.849999999999998,32.02128930492961 L17.2125,30.917106915104448 L18.487499999999997,30.917106915104448 z M17.2125,33.125471694754765 L16.575,32.02128930492961 L17.849999999999998,32.02128930492961 z M18.487499999999997,33.125471694754765 L17.849999999999998,32.02128930492961 L19.124999999999996,32.02128930492961 z M16.575,34.229654084579934 L15.9375,33.12547169475478 L17.2125,33.12547169475478 z M15.9375,35.33383647440509 L15.3,34.229654084579934 L16.575,34.229654084579934 z M17.2125,35.33383647440509 L16.575,34.229654084579934 L17.849999999999998,34.229654084579934 z M19.124999999999996,34.229654084579934 L18.487499999999997,33.12547169475478 L19.762499999999996,33.12547169475478 z M18.487499999999997,35.33383647440509 L17.849999999999998,34.229654084579934 L19.124999999999996,34.229654084579934 z M19.762499999999996,35.33383647440509 L19.124999999999996,34.229654084579934 L20.399999999999995,34.229654084579934 z M30.599999999999998,18.771100627027703 L29.9625,17.66691823720254 L31.237499999999997,17.66691823720254 z M29.9625,19.875283016852865 L29.325,18.771100627027703 L30.599999999999998,18.771100627027703 z M31.237499999999997,19.875283016852865 L30.599999999999998,18.771100627027703 L31.874999999999996,18.771100627027703 z M29.325,20.97946540667802 L28.6875,19.87528301685286 L29.9625,19.87528301685286 z M28.6875,22.083647796503183 L28.05,20.97946540667802 L29.325,20.97946540667802 z M29.9625,22.083647796503183 L29.325,20.97946540667802 L30.599999999999998,20.97946540667802 z M31.874999999999996,20.97946540667802 L31.237499999999997,19.87528301685286 L32.512499999999996,19.87528301685286 z M31.237499999999997,22.083647796503183 L30.599999999999998,20.97946540667802 L31.874999999999996,20.97946540667802 z M32.512499999999996,22.083647796503183 L31.874999999999996,20.97946540667802 L33.15,20.97946540667802 z M28.049999999999997,23.187830186328338 L27.412499999999998,22.083647796503175 L28.687499999999996,22.083647796503175 z M27.412499999999998,24.2920125761535 L26.775,23.187830186328338 L28.049999999999997,23.187830186328338 z M28.687499999999996,24.2920125761535 L28.049999999999997,23.187830186328338 L29.324999999999996,23.187830186328338 z M26.775,25.396194965978655 L26.1375,24.292012576153493 L27.412499999999998,24.292012576153493 z M26.1375,26.500377355803817 L25.5,25.396194965978655 L26.775,25.396194965978655 z M27.412499999999998,26.500377355803817 L26.775,25.396194965978655 L28.049999999999997,25.396194965978655 z M29.324999999999996,25.396194965978655 L28.687499999999996,24.292012576153493 L29.962499999999995,24.292012576153493 z M28.687499999999996,26.500377355803817 L28.049999999999997,25.396194965978655 L29.324999999999996,25.396194965978655 z M29.962499999999995,26.500377355803817 L29.324999999999996,25.396194965978655 L30.599999999999994,25.396194965978655 z M33.15,23.187830186328338 L32.512499999999996,22.083647796503175 L33.7875,22.083647796503175 z M32.512499999999996,24.2920125761535 L31.874999999999996,23.187830186328338 L33.15,23.187830186328338 z M33.7875,24.2920125761535 L33.15,23.187830186328338 L34.425000000000004,23.187830186328338 z M31.875,25.396194965978655 L31.2375,24.292012576153493 L32.5125,24.292012576153493 z M31.2375,26.500377355803817 L30.6,25.396194965978655 L31.875,25.396194965978655 z M32.5125,26.500377355803817 L31.875000000000004,25.396194965978655 L33.150000000000006,25.396194965978655 z M34.425,25.396194965978655 L33.787499999999994,24.292012576153493 L35.0625,24.292012576153493 z M33.787499999999994,26.500377355803817 L33.14999999999999,25.396194965978655 L34.425,25.396194965978655 z M35.0625,26.500377355803817 L34.425,25.396194965978655 L35.7,25.396194965978655 z M25.5,27.60455974562898 L24.8625,26.500377355803817 L26.1375,26.500377355803817 z M24.8625,28.70874213545414 L24.225,27.60455974562898 L25.5,27.60455974562898 z M26.1375,28.70874213545414 L25.5,27.60455974562898 L26.775,27.60455974562898 z M24.225,29.812924525279296 L23.587500000000002,28.708742135454134 L24.8625,28.708742135454134 z M23.587500000000002,30.91710691510446 L22.950000000000003,29.812924525279296 L24.225,29.812924525279296 z M24.8625,30.91710691510446 L24.225,29.812924525279296 L25.5,29.812924525279296 z M26.775,29.812924525279296 L26.1375,28.708742135454134 L27.412499999999998,28.708742135454134 z M26.1375,30.91710691510446 L25.5,29.812924525279296 L26.775,29.812924525279296 z M27.412499999999998,30.91710691510446 L26.775,29.812924525279296 L28.049999999999997,29.812924525279296 z M22.95,32.02128930492961 L22.3125,30.917106915104448 L23.5875,30.917106915104448 z M22.3125,33.125471694754765 L21.675,32.02128930492961 L22.95,32.02128930492961 z M23.5875,33.125471694754765 L22.95,32.02128930492961 L24.224999999999998,32.02128930492961 z M21.675,34.229654084579934 L21.0375,33.12547169475478 L22.3125,33.12547169475478 z M21.0375,35.33383647440509 L20.400000000000002,34.229654084579934 L21.675,34.229654084579934 z M22.3125,35.33383647440509 L21.675,34.229654084579934 L22.95,34.229654084579934 z M24.224999999999998,34.229654084579934 L23.5875,33.12547169475478 L24.862499999999997,33.12547169475478 z M23.5875,35.33383647440509 L22.95,34.229654084579934 L24.224999999999998,34.229654084579934 z M24.862499999999997,35.33383647440509 L24.224999999999998,34.229654084579934 L25.499999999999996,34.229654084579934 z M28.05,32.02128930492961 L27.4125,30.917106915104448 L28.6875,30.917106915104448 z M27.4125,33.125471694754765 L26.775000000000002,32.02128930492961 L28.05,32.02128930492961 z M28.6875,33.125471694754765 L28.05,32.02128930492961 L29.325,32.02128930492961 z M26.775000000000002,34.229654084579934 L26.137500000000003,33.12547169475478 L27.4125,33.12547169475478 z M26.137500000000003,35.33383647440509 L25.500000000000004,34.229654084579934 L26.775000000000002,34.229654084579934 z M27.4125,35.33383647440509 L26.775000000000002,34.229654084579934 L28.05,34.229654084579934 z M29.325,34.229654084579934 L28.6875,33.12547169475478 L29.9625,33.12547169475478 z M28.6875,35.33383647440509 L28.05,34.229654084579934 L29.325,34.229654084579934 z M29.9625,35.33383647440509 L29.325,34.229654084579934 L30.599999999999998,34.229654084579934 z M35.699999999999996,27.60455974562898 L35.06249999999999,26.500377355803817 L36.3375,26.500377355803817 z M35.06249999999999,28.70874213545414 L34.42499999999999,27.60455974562898 L35.699999999999996,27.60455974562898 z M36.3375,28.70874213545414 L35.699999999999996,27.60455974562898 L36.975,27.60455974562898 z M34.425,29.812924525279296 L33.787499999999994,28.708742135454134 L35.0625,28.708742135454134 z M33.787499999999994,30.91710691510446 L33.14999999999999,29.812924525279296 L34.425,29.812924525279296 z M35.0625,30.91710691510446 L34.425,29.812924525279296 L35.7,29.812924525279296 z M36.974999999999994,29.812924525279296 L36.33749999999999,28.708742135454134 L37.6125,28.708742135454134 z M36.33749999999999,30.91710691510446 L35.69999999999999,29.812924525279296 L36.974999999999994,29.812924525279296 z M37.6125,30.91710691510446 L36.974999999999994,29.812924525279296 L38.25,29.812924525279296 z M33.15,32.02128930492961 L32.512499999999996,30.917106915104448 L33.7875,30.917106915104448 z M32.512499999999996,33.125471694754765 L31.874999999999996,32.02128930492961 L33.15,32.02128930492961 z M33.7875,33.125471694754765 L33.15,32.02128930492961 L34.425000000000004,32.02128930492961 z M31.875,34.229654084579934 L31.2375,33.12547169475478 L32.5125,33.12547169475478 z M31.2375,35.33383647440509 L30.6,34.229654084579934 L31.875,34.229654084579934 z M32.5125,35.33383647440509 L31.875000000000004,34.229654084579934 L33.150000000000006,34.229654084579934 z M34.425,34.229654084579934 L33.787499999999994,33.12547169475478 L35.0625,33.12547169475478 z M33.787499999999994,35.33383647440509 L33.14999999999999,34.229654084579934 L34.425,34.229654084579934 z M35.0625,35.33383647440509 L34.425,34.229654084579934 L35.7,34.229654084579934 z M38.24999999999999,32.02128930492961 L37.61249999999999,30.917106915104448 L38.887499999999996,30.917106915104448 z M37.61249999999999,33.125471694754765 L36.97499999999999,32.02128930492961 L38.24999999999999,32.02128930492961 z M38.887499999999996,33.125471694754765 L38.24999999999999,32.02128930492961 L39.525,32.02128930492961 z M36.974999999999994,34.229654084579934 L36.33749999999999,33.12547169475478 L37.6125,33.12547169475478 z M36.33749999999999,35.33383647440509 L35.69999999999999,34.229654084579934 L36.974999999999994,34.229654084579934 z M37.6125,35.33383647440509 L36.974999999999994,34.229654084579934 L38.25,34.229654084579934 z M39.52499999999999,34.229654084579934 L38.88749999999999,33.12547169475478 L40.162499999999994,33.12547169475478 z M38.88749999999999,35.33383647440509 L38.249999999999986,34.229654084579934 L39.52499999999999,34.229654084579934 z M40.162499999999994,35.33383647440509 L39.52499999999999,34.229654084579934 L40.8,34.229654084579934 z" fill="none" stroke="#000" stroke-width="0.1"/>
    </g>
    <text x="78.19999999999999" y="50.8" text-anchor="middle" dominant-baseline="middle" font-family="Times New Roman, Arial, serif" font-size="23" fill="none" stroke="#000" stroke-width="0.1">BPI</text>
  </g>
</svg>
