<?xml version="1.0" encoding="UTF-8" standalone="no"?>
<svg xmlns="http://www.w3.org/2000/svg" width="304.8000mm" height="457.2000mm" viewBox="0 0 304.8000 457.2000">
<rect x="0" y="0" width="100%" height="100%" fill="white" />
<g transform="translate(2.0000,2.0000)"><path d="M 0.0000 0.0000 L 203.2000 0.0000 L 203.2000 109.0000 L 206.3000 109.0000 L 206.3000 121.0000 L 203.2000 121.0000 L 203.2000 6.0000 L 206.3000 6.0000 L 206.3000 18.0000 L 203.2000 18.0000 L 203.2000 127.0000 L 197.2000 127.0000 L 197.2000 130.1000 L 185.2000 130.1000 L 185.2000 127.0000 L 18.0000 127.0000 L 18.0000 130.1000 L 6.0000 130.1000 L 6.0000 127.0000 L 0.0000 127.0000 L 0.0000 18.0000 L 2.9000 18.0000 L 2.9000 6.0000 L 0.0000 6.0000 L 0.0000 121.0000 L 2.9000 121.0000 L 2.9000 109.0000 L 0.0000 109.0000 L 0.0000 0.0000 Z" fill="none" stroke="red" stroke-width="0.1" /></g>
<rect x="54.4000" y="8.0000" width="2.8000" height="115.0000" fill="none" stroke="red" stroke-width="0.1" />
<rect x="105.2000" y="8.0000" width="2.8000" height="115.0000" fill="none" stroke="red" stroke-width="0.1" />
<rect x="199.8048" y="11.7024" width="4.5952" height="4.5952" fill="none" stroke="red" stroke-width="0.1" />
<rect x="202.1024" y="12.8000" width="6.1976" height="2.4000" fill="none" stroke="red" stroke-width="0.1" />
<rect x="199.8048" y="114.7024" width="4.5952" height="4.5952" fill="none" stroke="red" stroke-width="0.1" />
<rect x="202.1024" y="115.8000" width="6.1976" height="2.4000" fill="none" stroke="red" stroke-width="0.1" />
<circle cx="6.9000" cy="14.0000" r="1.2000" fill="none" stroke="red" stroke-width="0.1" />
<circle cx="6.9000" cy="117.0000" r="1.2000" fill="none" stroke="red" stroke-width="0.1" />
<circle cx="14.0000" cy="130.5500" r="1.2000" fill="none" stroke="red" stroke-width="0.1" />
<circle cx="193.2000" cy="130.5500" r="1.2000" fill="none" stroke="red" stroke-width="0.1" />
<g transform="translate(2.0000,134.1000)"><path d="M 0.0000 0.0000 L 203.2000 0.0000 L 203.2000 109.0000 L 206.3000 109.0000 L 206.3000 121.0000 L 203.2000 121.0000 L 203.2000 6.0000 L 206.3000 6.0000 L 206.3000 18.0000 L 203.2000 18.0000 L 203.2000 127.0000 L 197.2000 127.0000 L 197.2000 130.1000 L 185.2000 130.1000 L 185.2000 127.0000 L 18.0000 127.0000 L 18.0000 130.1000 L 6.0000 130.1000 L 6.0000 127.0000 L 0.0000 127.0000 L 0.0000 18.0000 L 2.9000 18.0000 L 2.9000 6.0000 L 0.0000 6.0000 L 0.0000 121.0000 L 2.9000 121.0000 L 2.9000 109.0000 L 0.0000 109.0000 L 0.0000 0.0000 Z" fill="none" stroke="red" stroke-width="0.1" /></g>
<rect x="54.4000" y="140.1000" width="2.8000" height="115.0000" fill="none" stroke="red" stroke-width="0.1" />
<rect x="105.2000" y="140.1000" width="2.8000" height="115.0000" fill="none" stroke="red" stroke-width="0.1" />
<circle cx="6.9000" cy="146.1000" r="1.2000" fill="none" stroke="red" stroke-width="0.1" />
<circle cx="6.9000" cy="249.1000" r="1.2000" fill="none" stroke="red" stroke-width="0.1" />
<rect x="199.8048" y="143.8024" width="4.5952" height="4.5952" fill="none" stroke="red" stroke-width="0.1" />
<rect x="202.1024" y="144.9000" width="6.1976" height="2.4000" fill="none" stroke="red" stroke-width="0.1" />
<rect x="199.8048" y="246.8024" width="4.5952" height="4.5952" fill="none" stroke="red" stroke-width="0.1" />
<rect x="202.1024" y="247.9000" width="6.1976" height="2.4000" fill="none" stroke="red" stroke-width="0.1" />
<circle cx="14.0000" cy="262.6500" r="1.2000" fill="none" stroke="red" stroke-width="0.1" />
<circle cx="193.2000" cy="262.6500" r="1.2000" fill="none" stroke="red" stroke-width="0.1" />
<g transform="translate(210.3000,134.1000)"><path d="M 0.0000 0.0000 L 50.8000 0.0000 L 50.8000 109.0000 L 53.9000 109.0000 L 53.9000 121.0000 L 50.8000 121.0000 L 50.8000 6.0000 L 53.9000 6.0000 L 53.9000 18.0000 L 50.8000 18.0000 L 50.8000 127.0000 L 44.8000 127.0000 L 44.8000 130.1000 L 32.8000 130.1000 L 32.8000 127.0000 L 18.0000 127.0000 L 18.0000 130.1000 L 6.0000 130.1000 L 6.0000 127.0000 L 0.0000 127.0000 L 0.0000 18.0000 L 2.9000 18.0000 L 2.9000 6.0000 L 0.0000 6.0000 L 0.0000 121.0000 L 2.9000 121.0000 L 2.9000 109.0000 L 0.0000 109.0000 L 0.0000 0.0000 Z" fill="none" stroke="red" stroke-width="0.1" /></g>
<circle cx="215.2000" cy="146.1000" r="1.2000" fill="none" stroke="red" stroke-width="0.1" />
<circle cx="215.2000" cy="249.1000" r="1.2000" fill="none" stroke="red" stroke-width="0.1" />
<rect x="255.7048" y="143.8024" width="4.5952" height="4.5952" fill="none" stroke="red" stroke-width="0.1" />
<rect x="258.0024" y="144.9000" width="6.1976" height="2.4000" fill="none" stroke="red" stroke-width="0.1" />
<rect x="255.7048" y="246.8024" width="4.5952" height="4.5952" fill="none" stroke="red" stroke-width="0.1" />
<rect x="258.0024" y="247.9000" width="6.1976" height="2.4000" fill="none" stroke="red" stroke-width="0.1" />
<circle cx="222.3000" cy="262.6500" r="1.2000" fill="none" stroke="red" stroke-width="0.1" />
<circle cx="249.1000" cy="262.6500" r="1.2000" fill="none" stroke="red" stroke-width="0.1" />
<g transform="translate(235.7000,197.6000) rotate(90)"><text x="0" y="0" font-family="Arial" font-size="10.0000mm" text-anchor="middle" dominant-baseline="middle" fill="none" stroke="black" stroke-width="0.1">TANS</text></g>
<g transform="translate(2.0000,266.2000)"><path d="M 0.0000 0.0000 L 50.8000 0.0000 L 50.8000 109.0000 L 53.9000 109.0000 L 53.9000 121.0000 L 50.8000 121.0000 L 50.8000 6.0000 L 53.9000 6.0000 L 53.9000 18.0000 L 50.8000 18.0000 L 50.8000 127.0000 L 44.8000 127.0000 L 44.8000 130.1000 L 32.8000 130.1000 L 32.8000 127.0000 L 18.0000 127.0000 L 18.0000 130.1000 L 6.0000 130.1000 L 6.0000 127.0000 L 0.0000 127.0000 L 0.0000 18.0000 L 2.9000 18.0000 L 2.9000 6.0000 L 0.0000 6.0000 L 0.0000 121.0000 L 2.9000 121.0000 L 2.9000 109.0000 L 0.0000 109.0000 L 0.0000 0.0000 Z" fill="none" stroke="red" stroke-width="0.1" /></g>
<circle cx="6.9000" cy="278.2000" r="1.2000" fill="none" stroke="red" stroke-width="0.1" />
<circle cx="6.9000" cy="381.2000" r="1.2000" fill="none" stroke="red" stroke-width="0.1" />
<rect x="47.4048" y="275.9024" width="4.5952" height="4.5952" fill="none" stroke="red" stroke-width="0.1" />
<rect x="49.7024" y="277.0000" width="6.1976" height="2.4000" fill="none" stroke="red" stroke-width="0.1" />
<rect x="47.4048" y="378.9024" width="4.5952" height="4.5952" fill="none" stroke="red" stroke-width="0.1" />
<rect x="49.7024" y="380.0000" width="6.1976" height="2.4000" fill="none" stroke="red" stroke-width="0.1" />
<circle cx="14.0000" cy="394.7500" r="1.2000" fill="none" stroke="red" stroke-width="0.1" />
<circle cx="40.8000" cy="394.7500" r="1.2000" fill="none" stroke="red" stroke-width="0.1" />
<g transform="translate(2.0000,266.2000)"><path d="M 25.4000,51.8953 L 24.5625,53.3459 L 26.2375,53.3459 Z" fill="none" stroke="black" stroke-width="0.1" /></g>
<g transform="translate(2.0000,266.2000)"><path d="M 24.5625,53.3459 L 23.7250,54.7964 L 25.4000,54.7964 Z" fill="none" stroke="black" stroke-width="0.1" /></g>
<g transform="translate(2.0000,266.2000)"><path d="M 26.2375,53.3459 L 25.4000,54.7964 L 27.0750,54.7964 Z" fill="none" stroke="black" stroke-width="0.1" /></g>
<g transform="translate(2.0000,266.2000)"><path d="M 23.7250,54.7964 L 22.8875,56.2470 L 24.5625,56.2470 Z" fill="none" stroke="black" stroke-width="0.1" /></g>
<g transform="translate(2.0000,266.2000)"><path d="M 22.8875,56.2470 L 22.0500,57.6976 L 23.7250,57.6976 Z" fill="none" stroke="black" stroke-width="0.1" /></g>
<g transform="translate(2.0000,266.2000)"><path d="M 24.5625,56.2470 L 23.7250,57.6976 L 25.4000,57.6976 Z" fill="none" stroke="black" stroke-width="0.1" /></g>
<g transform="translate(2.0000,266.2000)"><path d="M 27.0750,54.7964 L 26.2375,56.2470 L 27.9125,56.2470 Z" fill="none" stroke="black" stroke-width="0.1" /></g>
<g transform="translate(2.0000,266.2000)"><path d="M 26.2375,56.2470 L 25.4000,57.6976 L 27.0750,57.6976 Z" fill="none" stroke="black" stroke-width="0.1" /></g>
<g transform="translate(2.0000,266.2000)"><path d="M 27.9125,56.2470 L 27.0750,57.6976 L 28.7500,57.6976 Z" fill="none" stroke="black" stroke-width="0.1" /></g>
<g transform="translate(2.0000,266.2000)"><path d="M 22.0500,57.6976 L 21.2125,59.1482 L 22.8875,59.1482 Z" fill="none" stroke="black" stroke-width="0.1" /></g>
<g transform="translate(2.0000,266.2000)"><path d="M 21.2125,59.1482 L 20.3750,60.5988 L 22.0500,60.5988 Z" fill="none" stroke="black" stroke-width="0.1" /></g>
<g transform="translate(2.0000,266.2000)"><path d="M 22.8875,59.1482 L 22.0500,60.5988 L 23.7250,60.5988 Z" fill="none" stroke="black" stroke-width="0.1" /></g>
<g transform="translate(2.0000,266.2000)"><path d="M 20.3750,60.5988 L 19.5375,62.0494 L 21.2125,62.0494 Z" fill="none" stroke="black" stroke-width="0.1" /></g>
<g transform="translate(2.0000,266.2000)"><path d="M 19.5375,62.0494 L 18.7000,63.5000 L 20.3750,63.5000 Z" fill="none" stroke="black" stroke-width="0.1" /></g>
<g transform="translate(2.0000,266.2000)"><path d="M 21.2125,62.0494 L 20.3750,63.5000 L 22.0500,63.5000 Z" fill="none" stroke="black" stroke-width="0.1" /></g>
<g transform="translate(2.0000,266.2000)"><path d="M 23.7250,60.5988 L 22.8875,62.0494 L 24.5625,62.0494 Z" fill="none" stroke="black" stroke-width="0.1" /></g>
<g transform="translate(2.0000,266.2000)"><path d="M 22.8875,62.0494 L 22.0500,63.5000 L 23.7250,63.5000 Z" fill="none" stroke="black" stroke-width="0.1" /></g>
<g transform="translate(2.0000,266.2000)"><path d="M 24.5625,62.0494 L 23.7250,63.5000 L 25.4000,63.5000 Z" fill="none" stroke="black" stroke-width="0.1" /></g>
<g transform="translate(2.0000,266.2000)"><path d="M 28.7500,57.6976 L 27.9125,59.1482 L 29.5875,59.1482 Z" fill="none" stroke="black" stroke-width="0.1" /></g>
<g transform="translate(2.0000,266.2000)"><path d="M 27.9125,59.1482 L 27.0750,60.5988 L 28.7500,60.5988 Z" fill="none" stroke="black" stroke-width="0.1" /></g>
<g transform="translate(2.0000,266.2000)"><path d="M 29.5875,59.1482 L 28.7500,60.5988 L 30.4250,60.5988 Z" fill="none" stroke="black" stroke-width="0.1" /></g>
<g transform="translate(2.0000,266.2000)"><path d="M 27.0750,60.5988 L 26.2375,62.0494 L 27.9125,62.0494 Z" fill="none" stroke="black" stroke-width="0.1" /></g>
<g transform="translate(2.0000,266.2000)"><path d="M 26.2375,62.0494 L 25.4000,63.5000 L 27.0750,63.5000 Z" fill="none" stroke="black" stroke-width="0.1" /></g>
<g transform="translate(2.0000,266.2000)"><path d="M 27.9125,62.0494 L 27.0750,63.5000 L 28.7500,63.5000 Z" fill="none" stroke="black" stroke-width="0.1" /></g>
<g transform="translate(2.0000,266.2000)"><path d="M 30.4250,60.5988 L 29.5875,62.0494 L 31.2625,62.0494 Z" fill="none" stroke="black" stroke-width="0.1" /></g>
<g transform="translate(2.0000,266.2000)"><path d="M 29.5875,62.0494 L 28.7500,63.5000 L 30.4250,63.5000 Z" fill="none" stroke="black" stroke-width="0.1" /></g>
<g transform="translate(2.0000,266.2000)"><path d="M 31.2625,62.0494 L 30.4250,63.5000 L 32.1000,63.5000 Z" fill="none" stroke="black" stroke-width="0.1" /></g>
<g transform="translate(2.0000,266.2000)"><path d="M 18.7000,63.5000 L 17.8625,64.9506 L 19.5375,64.9506 Z" fill="none" stroke="black" stroke-width="0.1" /></g>
<g transform="translate(2.0000,266.2000)"><path d="M 17.8625,64.9506 L 17.0250,66.4012 L 18.7000,66.4012 Z" fill="none" stroke="black" stroke-width="0.1" /></g>
<g transform="translate(2.0000,266.2000)"><path d="M 19.5375,64.9506 L 18.7000,66.4012 L 20.3750,66.4012 Z" fill="none" stroke="black" stroke-width="0.1" /></g>
<g transform="translate(2.0000,266.2000)"><path d="M 17.0250,66.4012 L 16.1875,67.8518 L 17.8625,67.8518 Z" fill="none" stroke="black" stroke-width="0.1" /></g>
<g transform="translate(2.0000,266.2000)"><path d="M 16.1875,67.8518 L 15.3500,69.3024 L 17.0250,69.3024 Z" fill="none" stroke="black" stroke-width="0.1" /></g>
<g transform="translate(2.0000,266.2000)"><path d="M 17.8625,67.8518 L 17.0250,69.3024 L 18.7000,69.3024 Z" fill="none" stroke="black" stroke-width="0.1" /></g>
<g transform="translate(2.0000,266.2000)"><path d="M 20.3750,66.4012 L 19.5375,67.8518 L 21.2125,67.8518 Z" fill="none" stroke="black" stroke-width="0.1" /></g>
<g transform="translate(2.0000,266.2000)"><path d="M 19.5375,67.8518 L 18.7000,69.3024 L 20.3750,69.3024 Z" fill="none" stroke="black" stroke-width="0.1" /></g>
<g transform="translate(2.0000,266.2000)"><path d="M 21.2125,67.8518 L 20.3750,69.3024 L 22.0500,69.3024 Z" fill="none" stroke="black" stroke-width="0.1" /></g>
<g transform="translate(2.0000,266.2000)"><path d="M 15.3500,69.3024 L 14.5125,70.7530 L 16.1875,70.7530 Z" fill="none" stroke="black" stroke-width="0.1" /></g>
<g transform="translate(2.0000,266.2000)"><path d="M 14.5125,70.7530 L 13.6750,72.2036 L 15.3500,72.2036 Z" fill="none" stroke="black" stroke-width="0.1" /></g>
<g transform="translate(2.0000,266.2000)"><path d="M 16.1875,70.7530 L 15.3500,72.2036 L 17.0250,72.2036 Z" fill="none" stroke="black" stroke-width="0.1" /></g>
<g transform="translate(2.0000,266.2000)"><path d="M 13.6750,72.2036 L 12.8375,73.6541 L 14.5125,73.6541 Z" fill="none" stroke="black" stroke-width="0.1" /></g>
<g transform="translate(2.0000,266.2000)"><path d="M 12.8375,73.6541 L 12.0000,75.1047 L 13.6750,75.1047 Z" fill="none" stroke="black" stroke-width="0.1" /></g>
<g transform="translate(2.0000,266.2000)"><path d="M 14.5125,73.6541 L 13.6750,75.1047 L 15.3500,75.1047 Z" fill="none" stroke="black" stroke-width="0.1" /></g>
<g transform="translate(2.0000,266.2000)"><path d="M 17.0250,72.2036 L 16.1875,73.6541 L 17.8625,73.6541 Z" fill="none" stroke="black" stroke-width="0.1" /></g>
<g transform="translate(2.0000,266.2000)"><path d="M 16.1875,73.6541 L 15.3500,75.1047 L 17.0250,75.1047 Z" fill="none" stroke="black" stroke-width="0.1" /></g>
<g transform="translate(2.0000,266.2000)"><path d="M 17.8625,73.6541 L 17.0250,75.1047 L 18.7000,75.1047 Z" fill="none" stroke="black" stroke-width="0.1" /></g>
<g transform="translate(2.0000,266.2000)"><path d="M 22.0500,69.3024 L 21.2125,70.7530 L 22.8875,70.7530 Z" fill="none" stroke="black" stroke-width="0.1" /></g>
<g transform="translate(2.0000,266.2000)"><path d="M 21.2125,70.7530 L 20.3750,72.2036 L 22.0500,72.2036 Z" fill="none" stroke="black" stroke-width="0.1" /></g>
<g transform="translate(2.0000,266.2000)"><path d="M 22.8875,70.7530 L 22.0500,72.2036 L 23.7250,72.2036 Z" fill="none" stroke="black" stroke-width="0.1" /></g>
<g transform="translate(2.0000,266.2000)"><path d="M 20.3750,72.2036 L 19.5375,73.6541 L 21.2125,73.6541 Z" fill="none" stroke="black" stroke-width="0.1" /></g>
<g transform="translate(2.0000,266.2000)"><path d="M 19.5375,73.6541 L 18.7000,75.1047 L 20.3750,75.1047 Z" fill="none" stroke="black" stroke-width="0.1" /></g>
<g transform="translate(2.0000,266.2000)"><path d="M 21.2125,73.6541 L 20.3750,75.1047 L 22.0500,75.1047 Z" fill="none" stroke="black" stroke-width="0.1" /></g>
<g transform="translate(2.0000,266.2000)"><path d="M 23.7250,72.2036 L 22.8875,73.6541 L 24.5625,73.6541 Z" fill="none" stroke="black" stroke-width="0.1" /></g>
<g transform="translate(2.0000,266.2000)"><path d="M 22.8875,73.6541 L 22.0500,75.1047 L 23.7250,75.1047 Z" fill="none" stroke="black" stroke-width="0.1" /></g>
<g transform="translate(2.0000,266.2000)"><path d="M 24.5625,73.6541 L 23.7250,75.1047 L 25.4000,75.1047 Z" fill="none" stroke="black" stroke-width="0.1" /></g>
<g transform="translate(2.0000,266.2000)"><path d="M 32.1000,63.5000 L 31.2625,64.9506 L 32.9375,64.9506 Z" fill="none" stroke="black" stroke-width="0.1" /></g>
<g transform="translate(2.0000,266.2000)"><path d="M 31.2625,64.9506 L 30.4250,66.4012 L 32.1000,66.4012 Z" fill="none" stroke="black" stroke-width="0.1" /></g>
<g transform="translate(2.0000,266.2000)"><path d="M 32.9375,64.9506 L 32.1000,66.4012 L 33.7750,66.4012 Z" fill="none" stroke="black" stroke-width="0.1" /></g>
<g transform="translate(2.0000,266.2000)"><path d="M 30.4250,66.4012 L 29.5875,67.8518 L 31.2625,67.8518 Z" fill="none" stroke="black" stroke-width="0.1" /></g>
<g transform="translate(2.0000,266.2000)"><path d="M 29.5875,67.8518 L 28.7500,69.3024 L 30.4250,69.3024 Z" fill="none" stroke="black" stroke-width="0.1" /></g>
<g transform="translate(2.0000,266.2000)"><path d="M 31.2625,67.8518 L 30.4250,69.3024 L 32.1000,69.3024 Z" fill="none" stroke="black" stroke-width="0.1" /></g>
<g transform="translate(2.0000,266.2000)"><path d="M 33.7750,66.4012 L 32.9375,67.8518 L 34.6125,67.8518 Z" fill="none" stroke="black" stroke-width="0.1" /></g>
<g transform="translate(2.0000,266.2000)"><path d="M 32.9375,67.8518 L 32.1000,69.3024 L 33.7750,69.3024 Z" fill="none" stroke="black" stroke-width="0.1" /></g>
<g transform="translate(2.0000,266.2000)"><path d="M 34.6125,67.8518 L 33.7750,69.3024 L 35.4500,69.3024 Z" fill="none" stroke="black" stroke-width="0.1" /></g>
<g transform="translate(2.0000,266.2000)"><path d="M 28.7500,69.3024 L 27.9125,70.7530 L 29.5875,70.7530 Z" fill="none" stroke="black" stroke-width="0.1" /></g>
<g transform="translate(2.0000,266.2000)"><path d="M 27.9125,70.7530 L 27.0750,72.2036 L 28.7500,72.2036 Z" fill="none" stroke="black" stroke-width="0.1" /></g>
<g transform="translate(2.0000,266.2000)"><path d="M 29.5875,70.7530 L 28.7500,72.2036 L 30.4250,72.2036 Z" fill="none" stroke="black" stroke-width="0.1" /></g>
<g transform="translate(2.0000,266.2000)"><path d="M 27.0750,72.2036 L 26.2375,73.6541 L 27.9125,73.6541 Z" fill="none" stroke="black" stroke-width="0.1" /></g>
<g transform="translate(2.0000,266.2000)"><path d="M 26.2375,73.6541 L 25.4000,75.1047 L 27.0750,75.1047 Z" fill="none" stroke="black" stroke-width="0.1" /></g>
<g transform="translate(2.0000,266.2000)"><path d="M 27.9125,73.6541 L 27.0750,75.1047 L 28.7500,75.1047 Z" fill="none" stroke="black" stroke-width="0.1" /></g>
<g transform="translate(2.0000,266.2000)"><path d="M 30.4250,72.2036 L 29.5875,73.6541 L 31.2625,73.6541 Z" fill="none" stroke="black" stroke-width="0.1" /></g>
<g transform="translate(2.0000,266.2000)"><path d="M 29.5875,73.6541 L 28.7500,75.1047 L 30.4250,75.1047 Z" fill="none" stroke="black" stroke-width="0.1" /></g>
<g transform="translate(2.0000,266.2000)"><path d="M 31.2625,73.6541 L 30.4250,75.1047 L 32.1000,75.1047 Z" fill="none" stroke="black" stroke-width="0.1" /></g>
<g transform="translate(2.0000,266.2000)"><path d="M 35.4500,69.3024 L 34.6125,70.7530 L 36.2875,70.7530 Z" fill="none" stroke="black" stroke-width="0.1" /></g>
<g transform="translate(2.0000,266.2000)"><path d="M 34.6125,70.7530 L 33.7750,72.2036 L 35.4500,72.2036 Z" fill="none" stroke="black" stroke-width="0.1" /></g>
<g transform="translate(2.0000,266.2000)"><path d="M 36.2875,70.7530 L 35.4500,72.2036 L 37.1250,72.2036 Z" fill="none" stroke="black" stroke-width="0.1" /></g>
<g transform="translate(2.0000,266.2000)"><path d="M 33.7750,72.2036 L 32.9375,73.6541 L 34.6125,73.6541 Z" fill="none" stroke="black" stroke-width="0.1" /></g>
<g transform="translate(2.0000,266.2000)"><path d="M 32.9375,73.6541 L 32.1000,75.1047 L 33.7750,75.1047 Z" fill="none" stroke="black" stroke-width="0.1" /></g>
<g transform="translate(2.0000,266.2000)"><path d="M 34.6125,73.6541 L 33.7750,75.1047 L 35.4500,75.1047 Z" fill="none" stroke="black" stroke-width="0.1" /></g>
<g transform="translate(2.0000,266.2000)"><path d="M 37.1250,72.2036 L 36.2875,73.6541 L 37.9625,73.6541 Z" fill="none" stroke="black" stroke-width="0.1" /></g>
<g transform="translate(2.0000,266.2000)"><path d="M 36.2875,73.6541 L 35.4500,75.1047 L 37.1250,75.1047 Z" fill="none" stroke="black" stroke-width="0.1" /></g>
<g transform="translate(2.0000,266.2000)"><path d="M 37.9625,73.6541 L 37.1250,75.1047 L 38.8000,75.1047 Z" fill="none" stroke="black" stroke-width="0.1" /></g>
<g transform="translate(2.0000,398.3000)"><path d="M 0.0000 0.0000 L 6.0000 0.0000 L 6.0000 2.9000 L 18.0000 2.9000 L 18.0000 0.0000 L 185.2000 0.0000 L 185.2000 2.9000 L 197.2000 2.9000 L 197.2000 0.0000 L 203.2000 0.0000 L 203.2000 6.0000 L 200.3000 6.0000 L 200.3000 18.0000 L 203.2000 18.0000 L 203.2000 32.8000 L 200.3000 32.8000 L 200.3000 44.8000 L 203.2000 44.8000 L 203.2000 50.8000 L 197.2000 50.8000 L 197.2000 47.9000 L 185.2000 47.9000 L 185.2000 50.8000 L 18.0000 50.8000 L 18.0000 47.9000 L 6.0000 47.9000 L 6.0000 50.8000 L 0.0000 50.8000 L 0.0000 44.8000 L 2.9000 44.8000 L 2.9000 32.8000 L 0.0000 32.8000 L 0.0000 18.0000 L 2.9000 18.0000 L 2.9000 6.0000 L 0.0000 6.0000 Z" fill="none" stroke="red" stroke-width="0.1" /></g>
<rect x="54.4000" y="401.3000" width="2.8000" height="44.8000" fill="none" stroke="red" stroke-width="0.1" />
<rect x="105.2000" y="401.3000" width="2.8000" height="44.8000" fill="none" stroke="red" stroke-width="0.1" />
<rect x="11.7024" y="408.0024" width="4.5952" height="4.5952" fill="none" stroke="red" stroke-width="0.1" />
<rect x="16.2976" y="409.1000" width="10.0000" height="2.4000" fill="none" stroke="red" stroke-width="0.1" />
<rect x="11.7024" y="434.8024" width="4.5952" height="4.5952" fill="none" stroke="red" stroke-width="0.1" />
<rect x="16.2976" y="435.9000" width="10.0000" height="2.4000" fill="none" stroke="red" stroke-width="0.1" />
<rect x="190.9024" y="408.0024" width="4.5952" height="4.5952" fill="none" stroke="red" stroke-width="0.1" />
<rect x="195.4976" y="409.1000" width="10.0000" height="2.4000" fill="none" stroke="red" stroke-width="0.1" />
<rect x="190.9024" y="434.8024" width="4.5952" height="4.5952" fill="none" stroke="red" stroke-width="0.1" />
<rect x="195.4976" y="435.9000" width="10.0000" height="2.4000" fill="none" stroke="red" stroke-width="0.1" />
<rect x="11.7024" y="408.0024" width="4.5952" height="4.5952" fill="none" stroke="red" stroke-width="0.1" />
<rect x="16.2976" y="409.1000" width="10.0000" height="2.4000" fill="none" stroke="red" stroke-width="0.1" />
<rect x="190.9024" y="408.0024" width="4.5952" height="4.5952" fill="none" stroke="red" stroke-width="0.1" />
<rect x="195.4976" y="409.1000" width="10.0000" height="2.4000" fill="none" stroke="red" stroke-width="0.1" />
<rect x="11.7024" y="434.8024" width="4.5952" height="4.5952" fill="none" stroke="red" stroke-width="0.1" />
<rect x="16.2976" y="435.9000" width="10.0000" height="2.4000" fill="none" stroke="red" stroke-width="0.1" />
<rect x="190.9024" y="434.8024" width="4.5952" height="4.5952" fill="none" stroke="red" stroke-width="0.1" />
<rect x="195.4976" y="435.9000" width="10.0000" height="2.4000" fill="none" stroke="red" stroke-width="0.1" />
<rect x="57.9000" y="266.2000" width="44.8000" height="124.0000" fill="none" stroke="red" stroke-width="0.1" />
<rect x="104.7000" y="266.2000" width="44.8000" height="124.0000" fill="none" stroke="red" stroke-width="0.1" />
</svg>
